<?xml version="1.0" encoding="utf-8" standalone="no"?>
<!DOCTYPE svg PUBLIC "-//W3C//DTD SVG 1.1//EN"
  "http://www.w3.org/Graphics/SVG/1.1/DTD/svg11.dtd">
<!-- Created with matplotlib (https://matplotlib.org/) -->
<svg height="337.488125pt" version="1.1" viewBox="0 0 323.93625 337.488125" width="323.93625pt" xmlns="http://www.w3.org/2000/svg" xmlns:xlink="http://www.w3.org/1999/xlink">
 <defs>
  <style type="text/css">
*{stroke-linecap:butt;stroke-linejoin:round;}
  </style>
 </defs>
 <g id="figure_1">
  <g id="patch_1">
   <path d="M 0 337.488125 
L 323.93625 337.488125 
L 323.93625 0 
L 0 0 
z
" style="fill:#ffffff;"/>
  </g>
  <g id="axes_1">
   <g id="patch_2">
    <path d="M 46.768125 301.8675 
L 277.168125 301.8675 
L 277.168125 35.7555 
L 46.768125 35.7555 
z
" style="fill:#ffffff;"/>
   </g>
   <g id="patch_3">
    <path clip-path="url(#p080b36e863)" d="M 57.240852 168.8115 
L 58.919847 168.8115 
L 58.919847 161.398817 
L 57.240852 161.398817 
z
" style="fill:#008000;"/>
   </g>
   <g id="patch_4">
    <path clip-path="url(#p080b36e863)" d="M 59.339595 168.8115 
L 61.01859 168.8115 
L 61.01859 184.916058 
L 59.339595 184.916058 
z
" style="fill:#ff0000;"/>
   </g>
   <g id="patch_5">
    <path clip-path="url(#p080b36e863)" d="M 61.438338 168.8115 
L 63.117333 168.8115 
L 63.117333 186.744592 
L 61.438338 186.744592 
z
" style="fill:#ff0000;"/>
   </g>
   <g id="patch_6">
    <path clip-path="url(#p080b36e863)" d="M 63.537081 168.8115 
L 65.216075 168.8115 
L 65.216075 168.088478 
L 63.537081 168.088478 
z
" style="fill:#008000;"/>
   </g>
   <g id="patch_7">
    <path clip-path="url(#p080b36e863)" d="M 65.635824 168.8115 
L 67.314818 168.8115 
L 67.314818 166.665852 
L 65.635824 166.665852 
z
" style="fill:#008000;"/>
   </g>
   <g id="patch_8">
    <path clip-path="url(#p080b36e863)" d="M 67.734567 168.8115 
L 69.413561 168.8115 
L 69.413561 153.979304 
L 67.734567 153.979304 
z
" style="fill:#008000;"/>
   </g>
   <g id="patch_9">
    <path clip-path="url(#p080b36e863)" d="M 69.83331 168.8115 
L 71.512304 168.8115 
L 71.512304 149.37382 
L 69.83331 149.37382 
z
" style="fill:#008000;"/>
   </g>
   <g id="patch_10">
    <path clip-path="url(#p080b36e863)" d="M 71.932053 168.8115 
L 73.611047 168.8115 
L 73.611047 161.067066 
L 71.932053 161.067066 
z
" style="fill:#008000;"/>
   </g>
   <g id="patch_11">
    <path clip-path="url(#p080b36e863)" d="M 74.030796 168.8115 
L 75.70979 168.8115 
L 75.70979 161.523712 
L 74.030796 161.523712 
z
" style="fill:#008000;"/>
   </g>
   <g id="patch_12">
    <path clip-path="url(#p080b36e863)" d="M 76.129539 168.8115 
L 77.808533 168.8115 
L 77.808533 173.628719 
L 76.129539 173.628719 
z
" style="fill:#ff0000;"/>
   </g>
   <g id="patch_13">
    <path clip-path="url(#p080b36e863)" d="M 78.228282 168.8115 
L 79.907276 168.8115 
L 79.907276 166.976137 
L 78.228282 166.976137 
z
" style="fill:#008000;"/>
   </g>
   <g id="patch_14">
    <path clip-path="url(#p080b36e863)" d="M 80.327025 168.8115 
L 82.006019 168.8115 
L 82.006019 165.003194 
L 80.327025 165.003194 
z
" style="fill:#008000;"/>
   </g>
   <g id="patch_15">
    <path clip-path="url(#p080b36e863)" d="M 82.425768 168.8115 
L 84.104762 168.8115 
L 84.104762 181.844435 
L 82.425768 181.844435 
z
" style="fill:#ff0000;"/>
   </g>
   <g id="patch_16">
    <path clip-path="url(#p080b36e863)" d="M 84.52451 168.8115 
L 86.203505 168.8115 
L 86.203505 180.244224 
L 84.52451 180.244224 
z
" style="fill:#ff0000;"/>
   </g>
   <g id="patch_17">
    <path clip-path="url(#p080b36e863)" d="M 86.623253 168.8115 
L 88.302248 168.8115 
L 88.302248 168.664164 
L 86.623253 168.664164 
z
" style="fill:#008000;"/>
   </g>
   <g id="patch_18">
    <path clip-path="url(#p080b36e863)" d="M 88.721996 168.8115 
L 90.400991 168.8115 
L 90.400991 176.333465 
L 88.721996 176.333465 
z
" style="fill:#ff0000;"/>
   </g>
   <g id="patch_19">
    <path clip-path="url(#p080b36e863)" d="M 90.820739 168.8115 
L 92.499734 168.8115 
L 92.499734 197.331351 
L 90.820739 197.331351 
z
" style="fill:#ff0000;"/>
   </g>
   <g id="patch_20">
    <path clip-path="url(#p080b36e863)" d="M 92.919482 168.8115 
L 94.598477 168.8115 
L 94.598477 183.559782 
L 92.919482 183.559782 
z
" style="fill:#ff0000;"/>
   </g>
   <g id="patch_21">
    <path clip-path="url(#p080b36e863)" d="M 95.018225 168.8115 
L 96.69722 168.8115 
L 96.69722 167.270809 
L 95.018225 167.270809 
z
" style="fill:#008000;"/>
   </g>
   <g id="patch_22">
    <path clip-path="url(#p080b36e863)" d="M 97.116968 168.8115 
L 98.795962 168.8115 
L 98.795962 166.096021 
L 97.116968 166.096021 
z
" style="fill:#008000;"/>
   </g>
   <g id="patch_23">
    <path clip-path="url(#p080b36e863)" d="M 99.215711 168.8115 
L 100.894705 168.8115 
L 100.894705 182.537209 
L 99.215711 182.537209 
z
" style="fill:#ff0000;"/>
   </g>
   <g id="patch_24">
    <path clip-path="url(#p080b36e863)" d="M 101.314454 168.8115 
L 102.993448 168.8115 
L 102.993448 166.261896 
L 101.314454 166.261896 
z
" style="fill:#008000;"/>
   </g>
   <g id="patch_25">
    <path clip-path="url(#p080b36e863)" d="M 103.413197 168.8115 
L 105.092191 168.8115 
L 105.092191 169.329617 
L 103.413197 169.329617 
z
" style="fill:#ff0000;"/>
   </g>
   <g id="patch_26">
    <path clip-path="url(#p080b36e863)" d="M 105.51194 168.8115 
L 107.190934 168.8115 
L 107.190934 175.022073 
L 105.51194 175.022073 
z
" style="fill:#ff0000;"/>
   </g>
   <g id="patch_27">
    <path clip-path="url(#p080b36e863)" d="M 107.610683 168.8115 
L 109.289677 168.8115 
L 109.289677 162.84291 
L 107.610683 162.84291 
z
" style="fill:#008000;"/>
   </g>
   <g id="patch_28">
    <path clip-path="url(#p080b36e863)" d="M 109.709426 168.8115 
L 111.38842 168.8115 
L 111.38842 152.644495 
L 109.709426 152.644495 
z
" style="fill:#008000;"/>
   </g>
   <g id="patch_29">
    <path clip-path="url(#p080b36e863)" d="M 111.808169 168.8115 
L 113.487163 168.8115 
L 113.487163 168.047497 
L 111.808169 168.047497 
z
" style="fill:#008000;"/>
   </g>
   <g id="patch_30">
    <path clip-path="url(#p080b36e863)" d="M 113.906912 168.8115 
L 115.585906 168.8115 
L 115.585906 167.325451 
L 113.906912 167.325451 
z
" style="fill:#008000;"/>
   </g>
   <g id="patch_31">
    <path clip-path="url(#p080b36e863)" d="M 116.005655 168.8115 
L 117.684649 168.8115 
L 117.684649 169.405725 
L 116.005655 169.405725 
z
" style="fill:#ff0000;"/>
   </g>
   <g id="patch_32">
    <path clip-path="url(#p080b36e863)" d="M 118.104398 168.8115 
L 119.783392 168.8115 
L 119.783392 168.357782 
L 118.104398 168.357782 
z
" style="fill:#008000;"/>
   </g>
   <g id="patch_33">
    <path clip-path="url(#p080b36e863)" d="M 120.20314 168.8115 
L 121.882135 168.8115 
L 121.882135 161.703248 
L 120.20314 161.703248 
z
" style="fill:#008000;"/>
   </g>
   <g id="patch_34">
    <path clip-path="url(#p080b36e863)" d="M 122.301883 168.8115 
L 123.980878 168.8115 
L 123.980878 161.73252 
L 122.301883 161.73252 
z
" style="fill:#008000;"/>
   </g>
   <g id="patch_35">
    <path clip-path="url(#p080b36e863)" d="M 124.400626 168.8115 
L 126.079621 168.8115 
L 126.079621 162.518965 
L 124.400626 162.518965 
z
" style="fill:#008000;"/>
   </g>
   <g id="patch_36">
    <path clip-path="url(#p080b36e863)" d="M 126.499369 168.8115 
L 128.178364 168.8115 
L 128.178364 176.144172 
L 126.499369 176.144172 
z
" style="fill:#ff0000;"/>
   </g>
   <g id="patch_37">
    <path clip-path="url(#p080b36e863)" d="M 128.598112 168.8115 
L 130.277107 168.8115 
L 130.277107 172.325133 
L 128.598112 172.325133 
z
" style="fill:#ff0000;"/>
   </g>
   <g id="patch_38">
    <path clip-path="url(#p080b36e863)" d="M 130.696855 168.8115 
L 132.37585 168.8115 
L 132.37585 163.668384 
L 130.696855 163.668384 
z
" style="fill:#008000;"/>
   </g>
   <g id="patch_39">
    <path clip-path="url(#p080b36e863)" d="M 132.795598 168.8115 
L 134.474592 168.8115 
L 134.474592 161.180252 
L 132.795598 161.180252 
z
" style="fill:#008000;"/>
   </g>
   <g id="patch_40">
    <path clip-path="url(#p080b36e863)" d="M 134.894341 168.8115 
L 136.573335 168.8115 
L 136.573335 189.152713 
L 134.894341 189.152713 
z
" style="fill:#ff0000;"/>
   </g>
   <g id="patch_41">
    <path clip-path="url(#p080b36e863)" d="M 136.993084 168.8115 
L 138.672078 168.8115 
L 138.672078 162.189165 
L 136.993084 162.189165 
z
" style="fill:#008000;"/>
   </g>
   <g id="patch_42">
    <path clip-path="url(#p080b36e863)" d="M 139.091827 168.8115 
L 140.770821 168.8115 
L 140.770821 164.722181 
L 139.091827 164.722181 
z
" style="fill:#008000;"/>
   </g>
   <g id="patch_43">
    <path clip-path="url(#p080b36e863)" d="M 141.19057 168.8115 
L 142.869564 168.8115 
L 142.869564 162.747287 
L 141.19057 162.747287 
z
" style="fill:#008000;"/>
   </g>
   <g id="patch_44">
    <path clip-path="url(#p080b36e863)" d="M 143.289313 168.8115 
L 144.968307 168.8115 
L 144.968307 165.048078 
L 143.289313 165.048078 
z
" style="fill:#008000;"/>
   </g>
   <g id="patch_45">
    <path clip-path="url(#p080b36e863)" d="M 145.388056 168.8115 
L 147.06705 168.8115 
L 147.06705 168.0514 
L 145.388056 168.0514 
z
" style="fill:#008000;"/>
   </g>
   <g id="patch_46">
    <path clip-path="url(#p080b36e863)" d="M 147.486799 168.8115 
L 149.165793 168.8115 
L 149.165793 182.576238 
L 147.486799 182.576238 
z
" style="fill:#ff0000;"/>
   </g>
   <g id="patch_47">
    <path clip-path="url(#p080b36e863)" d="M 149.585542 168.8115 
L 151.264536 168.8115 
L 151.264536 167.214217 
L 149.585542 167.214217 
z
" style="fill:#008000;"/>
   </g>
   <g id="patch_48">
    <path clip-path="url(#p080b36e863)" d="M 151.684285 168.8115 
L 153.363279 168.8115 
L 153.363279 173.720439 
L 151.684285 173.720439 
z
" style="fill:#ff0000;"/>
   </g>
   <g id="patch_49">
    <path clip-path="url(#p080b36e863)" d="M 153.783028 168.8115 
L 155.462022 168.8115 
L 155.462022 177.473128 
L 153.783028 177.473128 
z
" style="fill:#ff0000;"/>
   </g>
   <g id="patch_50">
    <path clip-path="url(#p080b36e863)" d="M 155.88177 168.8115 
L 157.560765 168.8115 
L 157.560765 170.332676 
L 155.88177 170.332676 
z
" style="fill:#ff0000;"/>
   </g>
   <g id="patch_51">
    <path clip-path="url(#p080b36e863)" d="M 157.980513 168.8115 
L 159.659508 168.8115 
L 159.659508 168.109944 
L 157.980513 168.109944 
z
" style="fill:#008000;"/>
   </g>
   <g id="patch_52">
    <path clip-path="url(#p080b36e863)" d="M 160.079256 168.8115 
L 161.758251 168.8115 
L 161.758251 181.157515 
L 160.079256 181.157515 
z
" style="fill:#ff0000;"/>
   </g>
   <g id="patch_53">
    <path clip-path="url(#p080b36e863)" d="M 162.177999 168.8115 
L 163.856994 168.8115 
L 163.856994 169.462317 
L 162.177999 169.462317 
z
" style="fill:#ff0000;"/>
   </g>
   <g id="patch_54">
    <path clip-path="url(#p080b36e863)" d="M 164.276742 168.8115 
L 165.955737 168.8115 
L 165.955737 173.831673 
L 164.276742 173.831673 
z
" style="fill:#ff0000;"/>
   </g>
   <g id="patch_55">
    <path clip-path="url(#p080b36e863)" d="M 166.375485 168.8115 
L 168.05448 168.8115 
L 168.05448 176.653508 
L 166.375485 176.653508 
z
" style="fill:#ff0000;"/>
   </g>
   <g id="patch_56">
    <path clip-path="url(#p080b36e863)" d="M 168.474228 168.8115 
L 170.153222 168.8115 
L 170.153222 178.815743 
L 168.474228 178.815743 
z
" style="fill:#ff0000;"/>
   </g>
   <g id="patch_57">
    <path clip-path="url(#p080b36e863)" d="M 170.572971 168.8115 
L 172.251965 168.8115 
L 172.251965 169.827243 
L 170.572971 169.827243 
z
" style="fill:#ff0000;"/>
   </g>
   <g id="patch_58">
    <path clip-path="url(#p080b36e863)" d="M 172.671714 168.8115 
L 174.350708 168.8115 
L 174.350708 162.926823 
L 172.671714 162.926823 
z
" style="fill:#008000;"/>
   </g>
   <g id="patch_59">
    <path clip-path="url(#p080b36e863)" d="M 174.770457 168.8115 
L 176.449451 168.8115 
L 176.449451 156.280095 
L 174.770457 156.280095 
z
" style="fill:#008000;"/>
   </g>
   <g id="patch_60">
    <path clip-path="url(#p080b36e863)" d="M 176.8692 168.8115 
L 178.548194 168.8115 
L 178.548194 176.870121 
L 176.8692 176.870121 
z
" style="fill:#ff0000;"/>
   </g>
   <g id="patch_61">
    <path clip-path="url(#p080b36e863)" d="M 178.967943 168.8115 
L 180.646937 168.8115 
L 180.646937 175.390902 
L 178.967943 175.390902 
z
" style="fill:#ff0000;"/>
   </g>
   <g id="patch_62">
    <path clip-path="url(#p080b36e863)" d="M 181.066686 168.8115 
L 182.74568 168.8115 
L 182.74568 176.501292 
L 181.066686 176.501292 
z
" style="fill:#ff0000;"/>
   </g>
   <g id="patch_63">
    <path clip-path="url(#p080b36e863)" d="M 183.165429 168.8115 
L 184.844423 168.8115 
L 184.844423 166.168225 
L 183.165429 166.168225 
z
" style="fill:#008000;"/>
   </g>
   <g id="patch_64">
    <path clip-path="url(#p080b36e863)" d="M 185.264172 168.8115 
L 186.943166 168.8115 
L 186.943166 173.94681 
L 185.264172 173.94681 
z
" style="fill:#ff0000;"/>
   </g>
   <g id="patch_65">
    <path clip-path="url(#p080b36e863)" d="M 187.362915 168.8115 
L 189.041909 168.8115 
L 189.041909 169.649659 
L 187.362915 169.649659 
z
" style="fill:#ff0000;"/>
   </g>
   <g id="patch_66">
    <path clip-path="url(#p080b36e863)" d="M 189.461658 168.8115 
L 191.140652 168.8115 
L 191.140652 174.889373 
L 189.461658 174.889373 
z
" style="fill:#ff0000;"/>
   </g>
   <g id="patch_67">
    <path clip-path="url(#p080b36e863)" d="M 191.5604 168.8115 
L 193.239395 168.8115 
L 193.239395 168.648552 
L 191.5604 168.648552 
z
" style="fill:#008000;"/>
   </g>
   <g id="patch_68">
    <path clip-path="url(#p080b36e863)" d="M 193.659143 168.8115 
L 195.338138 168.8115 
L 195.338138 179.691956 
L 193.659143 179.691956 
z
" style="fill:#ff0000;"/>
   </g>
   <g id="patch_69">
    <path clip-path="url(#p080b36e863)" d="M 195.757886 168.8115 
L 197.436881 168.8115 
L 197.436881 162.805832 
L 195.757886 162.805832 
z
" style="fill:#008000;"/>
   </g>
   <g id="patch_70">
    <path clip-path="url(#p080b36e863)" d="M 197.856629 168.8115 
L 199.535624 168.8115 
L 199.535624 161.353933 
L 197.856629 161.353933 
z
" style="fill:#008000;"/>
   </g>
   <g id="patch_71">
    <path clip-path="url(#p080b36e863)" d="M 199.955372 168.8115 
L 201.634367 168.8115 
L 201.634367 163.30541 
L 199.955372 163.30541 
z
" style="fill:#008000;"/>
   </g>
   <g id="patch_72">
    <path clip-path="url(#p080b36e863)" d="M 202.054115 168.8115 
L 203.73311 168.8115 
L 203.73311 166.490219 
L 202.054115 166.490219 
z
" style="fill:#008000;"/>
   </g>
   <g id="patch_73">
    <path clip-path="url(#p080b36e863)" d="M 204.152858 168.8115 
L 205.831852 168.8115 
L 205.831852 167.081516 
L 204.152858 167.081516 
z
" style="fill:#008000;"/>
   </g>
   <g id="patch_74">
    <path clip-path="url(#p080b36e863)" d="M 206.251601 168.8115 
L 207.930595 168.8115 
L 207.930595 168.997866 
L 206.251601 168.997866 
z
" style="fill:#ff0000;"/>
   </g>
   <g id="patch_75">
    <path clip-path="url(#p080b36e863)" d="M 208.350344 168.8115 
L 210.029338 168.8115 
L 210.029338 165.750609 
L 208.350344 165.750609 
z
" style="fill:#008000;"/>
   </g>
   <g id="patch_76">
    <path clip-path="url(#p080b36e863)" d="M 210.449087 168.8115 
L 212.128081 168.8115 
L 212.128081 159.656149 
L 210.449087 159.656149 
z
" style="fill:#008000;"/>
   </g>
   <g id="patch_77">
    <path clip-path="url(#p080b36e863)" d="M 212.54783 168.8115 
L 214.226824 168.8115 
L 214.226824 160.081571 
L 212.54783 160.081571 
z
" style="fill:#008000;"/>
   </g>
   <g id="patch_78">
    <path clip-path="url(#p080b36e863)" d="M 214.646573 168.8115 
L 216.325567 168.8115 
L 216.325567 169.608678 
L 214.646573 169.608678 
z
" style="fill:#ff0000;"/>
   </g>
   <g id="patch_79">
    <path clip-path="url(#p080b36e863)" d="M 216.745316 168.8115 
L 218.42431 168.8115 
L 218.42431 166.103827 
L 216.745316 166.103827 
z
" style="fill:#008000;"/>
   </g>
   <g id="patch_80">
    <path clip-path="url(#p080b36e863)" d="M 218.844059 168.8115 
L 220.523053 168.8115 
L 220.523053 173.388688 
L 218.844059 173.388688 
z
" style="fill:#ff0000;"/>
   </g>
   <g id="patch_81">
    <path clip-path="url(#p080b36e863)" d="M 220.942802 168.8115 
L 222.621796 168.8115 
L 222.621796 169.680883 
L 220.942802 169.680883 
z
" style="fill:#ff0000;"/>
   </g>
   <g id="patch_82">
    <path clip-path="url(#p080b36e863)" d="M 223.041545 168.8115 
L 224.720539 168.8115 
L 224.720539 163.877192 
L 223.041545 163.877192 
z
" style="fill:#008000;"/>
   </g>
   <g id="patch_83">
    <path clip-path="url(#p080b36e863)" d="M 225.140288 168.8115 
L 226.819282 168.8115 
L 226.819282 169.017381 
L 225.140288 169.017381 
z
" style="fill:#ff0000;"/>
   </g>
   <g id="patch_84">
    <path clip-path="url(#p080b36e863)" d="M 227.23903 168.8115 
L 228.918025 168.8115 
L 228.918025 162.809735 
L 227.23903 162.809735 
z
" style="fill:#008000;"/>
   </g>
   <g id="patch_85">
    <path clip-path="url(#p080b36e863)" d="M 229.337773 168.8115 
L 231.016768 168.8115 
L 231.016768 168.281674 
L 229.337773 168.281674 
z
" style="fill:#008000;"/>
   </g>
   <g id="patch_86">
    <path clip-path="url(#p080b36e863)" d="M 231.436516 168.8115 
L 233.115511 168.8115 
L 233.115511 178.158096 
L 231.436516 178.158096 
z
" style="fill:#ff0000;"/>
   </g>
   <g id="patch_87">
    <path clip-path="url(#p080b36e863)" d="M 233.535259 168.8115 
L 235.214254 168.8115 
L 235.214254 163.336633 
L 233.535259 163.336633 
z
" style="fill:#008000;"/>
   </g>
   <g id="patch_88">
    <path clip-path="url(#p080b36e863)" d="M 235.634002 168.8115 
L 237.312997 168.8115 
L 237.312997 167.00736 
L 235.634002 167.00736 
z
" style="fill:#008000;"/>
   </g>
   <g id="patch_89">
    <path clip-path="url(#p080b36e863)" d="M 237.732745 168.8115 
L 239.41174 168.8115 
L 239.41174 167.169333 
L 237.732745 167.169333 
z
" style="fill:#008000;"/>
   </g>
   <g id="patch_90">
    <path clip-path="url(#p080b36e863)" d="M 239.831488 168.8115 
L 241.510482 168.8115 
L 241.510482 167.382044 
L 239.831488 167.382044 
z
" style="fill:#008000;"/>
   </g>
   <g id="patch_91">
    <path clip-path="url(#p080b36e863)" d="M 241.930231 168.8115 
L 243.609225 168.8115 
L 243.609225 168.826136 
L 241.930231 168.826136 
z
" style="fill:#ff0000;"/>
   </g>
   <g id="patch_92">
    <path clip-path="url(#p080b36e863)" d="M 244.028974 168.8115 
L 245.707968 168.8115 
L 245.707968 160.536265 
L 244.028974 160.536265 
z
" style="fill:#008000;"/>
   </g>
   <g id="patch_93">
    <path clip-path="url(#p080b36e863)" d="M 246.127717 168.8115 
L 247.806711 168.8115 
L 247.806711 173.874605 
L 246.127717 173.874605 
z
" style="fill:#ff0000;"/>
   </g>
   <g id="patch_94">
    <path clip-path="url(#p080b36e863)" d="M 248.22646 168.8115 
L 249.905454 168.8115 
L 249.905454 176.893539 
L 248.22646 176.893539 
z
" style="fill:#ff0000;"/>
   </g>
   <g id="patch_95">
    <path clip-path="url(#p080b36e863)" d="M 250.325203 168.8115 
L 252.004197 168.8115 
L 252.004197 167.586949 
L 250.325203 167.586949 
z
" style="fill:#008000;"/>
   </g>
   <g id="patch_96">
    <path clip-path="url(#p080b36e863)" d="M 252.423946 168.8115 
L 254.10294 168.8115 
L 254.10294 177.594119 
L 252.423946 177.594119 
z
" style="fill:#ff0000;"/>
   </g>
   <g id="patch_97">
    <path clip-path="url(#p080b36e863)" d="M 254.522689 168.8115 
L 256.201683 168.8115 
L 256.201683 171.958256 
L 254.522689 171.958256 
z
" style="fill:#ff0000;"/>
   </g>
   <g id="patch_98">
    <path clip-path="url(#p080b36e863)" d="M 256.621432 168.8115 
L 258.300426 168.8115 
L 258.300426 161.947182 
L 256.621432 161.947182 
z
" style="fill:#008000;"/>
   </g>
   <g id="patch_99">
    <path clip-path="url(#p080b36e863)" d="M 258.720175 168.8115 
L 260.399169 168.8115 
L 260.399169 172.483203 
L 258.720175 172.483203 
z
" style="fill:#ff0000;"/>
   </g>
   <g id="patch_100">
    <path clip-path="url(#p080b36e863)" d="M 260.818917 168.8115 
L 262.497912 168.8115 
L 262.497912 163.625452 
L 260.818917 163.625452 
z
" style="fill:#008000;"/>
   </g>
   <g id="patch_101">
    <path clip-path="url(#p080b36e863)" d="M 262.91766 168.8115 
L 264.596655 168.8115 
L 264.596655 175.886577 
L 262.91766 175.886577 
z
" style="fill:#ff0000;"/>
   </g>
   <g id="patch_102">
    <path clip-path="url(#p080b36e863)" d="M 265.016403 168.8115 
L 266.695398 168.8115 
L 266.695398 162.40773 
L 265.016403 162.40773 
z
" style="fill:#008000;"/>
   </g>
   <g id="matplotlib.axis_1">
    <g id="xtick_1">
     <g id="line2d_1">
      <defs>
       <path d="M 0 0 
L 0 3.5 
" id="m7673d887eb" style="stroke:#000000;stroke-width:0.8;"/>
      </defs>
      <g>
       <use style="stroke:#000000;stroke-width:0.8;" x="58.080349" xlink:href="#m7673d887eb" y="301.8675"/>
      </g>
     </g>
     <g id="text_1">
      <!-- 1 -->
      <defs>
       <path d="M 12.40625 8.296875 
L 28.515625 8.296875 
L 28.515625 63.921875 
L 10.984375 60.40625 
L 10.984375 69.390625 
L 28.421875 72.90625 
L 38.28125 72.90625 
L 38.28125 8.296875 
L 54.390625 8.296875 
L 54.390625 0 
L 12.40625 0 
z
" id="DejaVuSans-49"/>
      </defs>
      <g transform="translate(55.535349 314.94625)scale(0.08 -0.08)">
       <use xlink:href="#DejaVuSans-49"/>
      </g>
     </g>
    </g>
    <g id="xtick_2">
     <g id="line2d_2">
      <g>
       <use style="stroke:#000000;stroke-width:0.8;" x="60.179092" xlink:href="#m7673d887eb" y="301.8675"/>
      </g>
     </g>
     <g id="text_2">
      <!-- 2 -->
      <defs>
       <path d="M 19.1875 8.296875 
L 53.609375 8.296875 
L 53.609375 0 
L 7.328125 0 
L 7.328125 8.296875 
Q 12.9375 14.109375 22.625 23.890625 
Q 32.328125 33.6875 34.8125 36.53125 
Q 39.546875 41.84375 41.421875 45.53125 
Q 43.3125 49.21875 43.3125 52.78125 
Q 43.3125 58.59375 39.234375 62.25 
Q 35.15625 65.921875 28.609375 65.921875 
Q 23.96875 65.921875 18.8125 64.3125 
Q 13.671875 62.703125 7.8125 59.421875 
L 7.8125 69.390625 
Q 13.765625 71.78125 18.9375 73 
Q 24.125 74.21875 28.421875 74.21875 
Q 39.75 74.21875 46.484375 68.546875 
Q 53.21875 62.890625 53.21875 53.421875 
Q 53.21875 48.921875 51.53125 44.890625 
Q 49.859375 40.875 45.40625 35.40625 
Q 44.1875 33.984375 37.640625 27.21875 
Q 31.109375 20.453125 19.1875 8.296875 
z
" id="DejaVuSans-50"/>
      </defs>
      <g transform="translate(57.634092 314.94625)scale(0.08 -0.08)">
       <use xlink:href="#DejaVuSans-50"/>
      </g>
     </g>
    </g>
    <g id="xtick_3">
     <g id="line2d_3">
      <g>
       <use style="stroke:#000000;stroke-width:0.8;" x="62.277835" xlink:href="#m7673d887eb" y="301.8675"/>
      </g>
     </g>
     <g id="text_3">
      <!-- 3 -->
      <defs>
       <path d="M 40.578125 39.3125 
Q 47.65625 37.796875 51.625 33 
Q 55.609375 28.21875 55.609375 21.1875 
Q 55.609375 10.40625 48.1875 4.484375 
Q 40.765625 -1.421875 27.09375 -1.421875 
Q 22.515625 -1.421875 17.65625 -0.515625 
Q 12.796875 0.390625 7.625 2.203125 
L 7.625 11.71875 
Q 11.71875 9.328125 16.59375 8.109375 
Q 21.484375 6.890625 26.8125 6.890625 
Q 36.078125 6.890625 40.9375 10.546875 
Q 45.796875 14.203125 45.796875 21.1875 
Q 45.796875 27.640625 41.28125 31.265625 
Q 36.765625 34.90625 28.71875 34.90625 
L 20.21875 34.90625 
L 20.21875 43.015625 
L 29.109375 43.015625 
Q 36.375 43.015625 40.234375 45.921875 
Q 44.09375 48.828125 44.09375 54.296875 
Q 44.09375 59.90625 40.109375 62.90625 
Q 36.140625 65.921875 28.71875 65.921875 
Q 24.65625 65.921875 20.015625 65.03125 
Q 15.375 64.15625 9.8125 62.3125 
L 9.8125 71.09375 
Q 15.4375 72.65625 20.34375 73.4375 
Q 25.25 74.21875 29.59375 74.21875 
Q 40.828125 74.21875 47.359375 69.109375 
Q 53.90625 64.015625 53.90625 55.328125 
Q 53.90625 49.265625 50.4375 45.09375 
Q 46.96875 40.921875 40.578125 39.3125 
z
" id="DejaVuSans-51"/>
      </defs>
      <g transform="translate(59.732835 314.94625)scale(0.08 -0.08)">
       <use xlink:href="#DejaVuSans-51"/>
      </g>
     </g>
    </g>
    <g id="xtick_4">
     <g id="line2d_4">
      <g>
       <use style="stroke:#000000;stroke-width:0.8;" x="64.376578" xlink:href="#m7673d887eb" y="301.8675"/>
      </g>
     </g>
     <g id="text_4">
      <!-- 4 -->
      <defs>
       <path d="M 37.796875 64.3125 
L 12.890625 25.390625 
L 37.796875 25.390625 
z
M 35.203125 72.90625 
L 47.609375 72.90625 
L 47.609375 25.390625 
L 58.015625 25.390625 
L 58.015625 17.1875 
L 47.609375 17.1875 
L 47.609375 0 
L 37.796875 0 
L 37.796875 17.1875 
L 4.890625 17.1875 
L 4.890625 26.703125 
z
" id="DejaVuSans-52"/>
      </defs>
      <g transform="translate(61.831578 314.94625)scale(0.08 -0.08)">
       <use xlink:href="#DejaVuSans-52"/>
      </g>
     </g>
    </g>
    <g id="xtick_5">
     <g id="line2d_5">
      <g>
       <use style="stroke:#000000;stroke-width:0.8;" x="66.475321" xlink:href="#m7673d887eb" y="301.8675"/>
      </g>
     </g>
     <g id="text_5">
      <!-- 5 -->
      <defs>
       <path d="M 10.796875 72.90625 
L 49.515625 72.90625 
L 49.515625 64.59375 
L 19.828125 64.59375 
L 19.828125 46.734375 
Q 21.96875 47.46875 24.109375 47.828125 
Q 26.265625 48.1875 28.421875 48.1875 
Q 40.625 48.1875 47.75 41.5 
Q 54.890625 34.8125 54.890625 23.390625 
Q 54.890625 11.625 47.5625 5.09375 
Q 40.234375 -1.421875 26.90625 -1.421875 
Q 22.3125 -1.421875 17.546875 -0.640625 
Q 12.796875 0.140625 7.71875 1.703125 
L 7.71875 11.625 
Q 12.109375 9.234375 16.796875 8.0625 
Q 21.484375 6.890625 26.703125 6.890625 
Q 35.15625 6.890625 40.078125 11.328125 
Q 45.015625 15.765625 45.015625 23.390625 
Q 45.015625 31 40.078125 35.4375 
Q 35.15625 39.890625 26.703125 39.890625 
Q 22.75 39.890625 18.8125 39.015625 
Q 14.890625 38.140625 10.796875 36.28125 
z
" id="DejaVuSans-53"/>
      </defs>
      <g transform="translate(63.930321 314.94625)scale(0.08 -0.08)">
       <use xlink:href="#DejaVuSans-53"/>
      </g>
     </g>
    </g>
    <g id="xtick_6">
     <g id="line2d_6">
      <g>
       <use style="stroke:#000000;stroke-width:0.8;" x="68.574064" xlink:href="#m7673d887eb" y="301.8675"/>
      </g>
     </g>
     <g id="text_6">
      <!-- 6 -->
      <defs>
       <path d="M 33.015625 40.375 
Q 26.375 40.375 22.484375 35.828125 
Q 18.609375 31.296875 18.609375 23.390625 
Q 18.609375 15.53125 22.484375 10.953125 
Q 26.375 6.390625 33.015625 6.390625 
Q 39.65625 6.390625 43.53125 10.953125 
Q 47.40625 15.53125 47.40625 23.390625 
Q 47.40625 31.296875 43.53125 35.828125 
Q 39.65625 40.375 33.015625 40.375 
z
M 52.59375 71.296875 
L 52.59375 62.3125 
Q 48.875 64.0625 45.09375 64.984375 
Q 41.3125 65.921875 37.59375 65.921875 
Q 27.828125 65.921875 22.671875 59.328125 
Q 17.53125 52.734375 16.796875 39.40625 
Q 19.671875 43.65625 24.015625 45.921875 
Q 28.375 48.1875 33.59375 48.1875 
Q 44.578125 48.1875 50.953125 41.515625 
Q 57.328125 34.859375 57.328125 23.390625 
Q 57.328125 12.15625 50.6875 5.359375 
Q 44.046875 -1.421875 33.015625 -1.421875 
Q 20.359375 -1.421875 13.671875 8.265625 
Q 6.984375 17.96875 6.984375 36.375 
Q 6.984375 53.65625 15.1875 63.9375 
Q 23.390625 74.21875 37.203125 74.21875 
Q 40.921875 74.21875 44.703125 73.484375 
Q 48.484375 72.75 52.59375 71.296875 
z
" id="DejaVuSans-54"/>
      </defs>
      <g transform="translate(66.029064 314.94625)scale(0.08 -0.08)">
       <use xlink:href="#DejaVuSans-54"/>
      </g>
     </g>
    </g>
    <g id="xtick_7">
     <g id="line2d_7">
      <g>
       <use style="stroke:#000000;stroke-width:0.8;" x="70.672807" xlink:href="#m7673d887eb" y="301.8675"/>
      </g>
     </g>
     <g id="text_7">
      <!-- 7 -->
      <defs>
       <path d="M 8.203125 72.90625 
L 55.078125 72.90625 
L 55.078125 68.703125 
L 28.609375 0 
L 18.3125 0 
L 43.21875 64.59375 
L 8.203125 64.59375 
z
" id="DejaVuSans-55"/>
      </defs>
      <g transform="translate(68.127807 314.94625)scale(0.08 -0.08)">
       <use xlink:href="#DejaVuSans-55"/>
      </g>
     </g>
    </g>
    <g id="xtick_8">
     <g id="line2d_8">
      <g>
       <use style="stroke:#000000;stroke-width:0.8;" x="72.77155" xlink:href="#m7673d887eb" y="301.8675"/>
      </g>
     </g>
     <g id="text_8">
      <!-- 8 -->
      <defs>
       <path d="M 31.78125 34.625 
Q 24.75 34.625 20.71875 30.859375 
Q 16.703125 27.09375 16.703125 20.515625 
Q 16.703125 13.921875 20.71875 10.15625 
Q 24.75 6.390625 31.78125 6.390625 
Q 38.8125 6.390625 42.859375 10.171875 
Q 46.921875 13.96875 46.921875 20.515625 
Q 46.921875 27.09375 42.890625 30.859375 
Q 38.875 34.625 31.78125 34.625 
z
M 21.921875 38.8125 
Q 15.578125 40.375 12.03125 44.71875 
Q 8.5 49.078125 8.5 55.328125 
Q 8.5 64.0625 14.71875 69.140625 
Q 20.953125 74.21875 31.78125 74.21875 
Q 42.671875 74.21875 48.875 69.140625 
Q 55.078125 64.0625 55.078125 55.328125 
Q 55.078125 49.078125 51.53125 44.71875 
Q 48 40.375 41.703125 38.8125 
Q 48.828125 37.15625 52.796875 32.3125 
Q 56.78125 27.484375 56.78125 20.515625 
Q 56.78125 9.90625 50.3125 4.234375 
Q 43.84375 -1.421875 31.78125 -1.421875 
Q 19.734375 -1.421875 13.25 4.234375 
Q 6.78125 9.90625 6.78125 20.515625 
Q 6.78125 27.484375 10.78125 32.3125 
Q 14.796875 37.15625 21.921875 38.8125 
z
M 18.3125 54.390625 
Q 18.3125 48.734375 21.84375 45.5625 
Q 25.390625 42.390625 31.78125 42.390625 
Q 38.140625 42.390625 41.71875 45.5625 
Q 45.3125 48.734375 45.3125 54.390625 
Q 45.3125 60.0625 41.71875 63.234375 
Q 38.140625 66.40625 31.78125 66.40625 
Q 25.390625 66.40625 21.84375 63.234375 
Q 18.3125 60.0625 18.3125 54.390625 
z
" id="DejaVuSans-56"/>
      </defs>
      <g transform="translate(70.22655 314.94625)scale(0.08 -0.08)">
       <use xlink:href="#DejaVuSans-56"/>
      </g>
     </g>
    </g>
    <g id="xtick_9">
     <g id="line2d_9">
      <g>
       <use style="stroke:#000000;stroke-width:0.8;" x="74.870293" xlink:href="#m7673d887eb" y="301.8675"/>
      </g>
     </g>
     <g id="text_9">
      <!-- 9 -->
      <defs>
       <path d="M 10.984375 1.515625 
L 10.984375 10.5 
Q 14.703125 8.734375 18.5 7.8125 
Q 22.3125 6.890625 25.984375 6.890625 
Q 35.75 6.890625 40.890625 13.453125 
Q 46.046875 20.015625 46.78125 33.40625 
Q 43.953125 29.203125 39.59375 26.953125 
Q 35.25 24.703125 29.984375 24.703125 
Q 19.046875 24.703125 12.671875 31.3125 
Q 6.296875 37.9375 6.296875 49.421875 
Q 6.296875 60.640625 12.9375 67.421875 
Q 19.578125 74.21875 30.609375 74.21875 
Q 43.265625 74.21875 49.921875 64.515625 
Q 56.59375 54.828125 56.59375 36.375 
Q 56.59375 19.140625 48.40625 8.859375 
Q 40.234375 -1.421875 26.421875 -1.421875 
Q 22.703125 -1.421875 18.890625 -0.6875 
Q 15.09375 0.046875 10.984375 1.515625 
z
M 30.609375 32.421875 
Q 37.25 32.421875 41.125 36.953125 
Q 45.015625 41.5 45.015625 49.421875 
Q 45.015625 57.28125 41.125 61.84375 
Q 37.25 66.40625 30.609375 66.40625 
Q 23.96875 66.40625 20.09375 61.84375 
Q 16.21875 57.28125 16.21875 49.421875 
Q 16.21875 41.5 20.09375 36.953125 
Q 23.96875 32.421875 30.609375 32.421875 
z
" id="DejaVuSans-57"/>
      </defs>
      <g transform="translate(72.325293 314.94625)scale(0.08 -0.08)">
       <use xlink:href="#DejaVuSans-57"/>
      </g>
     </g>
    </g>
    <g id="xtick_10">
     <g id="line2d_10">
      <g>
       <use style="stroke:#000000;stroke-width:0.8;" x="76.969036" xlink:href="#m7673d887eb" y="301.8675"/>
      </g>
     </g>
     <g id="text_10">
      <!-- 10 -->
      <defs>
       <path d="M 31.78125 66.40625 
Q 24.171875 66.40625 20.328125 58.90625 
Q 16.5 51.421875 16.5 36.375 
Q 16.5 21.390625 20.328125 13.890625 
Q 24.171875 6.390625 31.78125 6.390625 
Q 39.453125 6.390625 43.28125 13.890625 
Q 47.125 21.390625 47.125 36.375 
Q 47.125 51.421875 43.28125 58.90625 
Q 39.453125 66.40625 31.78125 66.40625 
z
M 31.78125 74.21875 
Q 44.046875 74.21875 50.515625 64.515625 
Q 56.984375 54.828125 56.984375 36.375 
Q 56.984375 17.96875 50.515625 8.265625 
Q 44.046875 -1.421875 31.78125 -1.421875 
Q 19.53125 -1.421875 13.0625 8.265625 
Q 6.59375 17.96875 6.59375 36.375 
Q 6.59375 54.828125 13.0625 64.515625 
Q 19.53125 74.21875 31.78125 74.21875 
z
" id="DejaVuSans-48"/>
      </defs>
      <g transform="translate(71.879036 314.94625)scale(0.08 -0.08)">
       <use xlink:href="#DejaVuSans-49"/>
       <use x="63.623047" xlink:href="#DejaVuSans-48"/>
      </g>
     </g>
    </g>
    <g id="xtick_11">
     <g id="line2d_11">
      <g>
       <use style="stroke:#000000;stroke-width:0.8;" x="79.067779" xlink:href="#m7673d887eb" y="301.8675"/>
      </g>
     </g>
     <g id="text_11">
      <!-- 11 -->
      <g transform="translate(73.977779 314.94625)scale(0.08 -0.08)">
       <use xlink:href="#DejaVuSans-49"/>
       <use x="63.623047" xlink:href="#DejaVuSans-49"/>
      </g>
     </g>
    </g>
    <g id="xtick_12">
     <g id="line2d_12">
      <g>
       <use style="stroke:#000000;stroke-width:0.8;" x="81.166522" xlink:href="#m7673d887eb" y="301.8675"/>
      </g>
     </g>
     <g id="text_12">
      <!-- 12 -->
      <g transform="translate(76.076522 314.94625)scale(0.08 -0.08)">
       <use xlink:href="#DejaVuSans-49"/>
       <use x="63.623047" xlink:href="#DejaVuSans-50"/>
      </g>
     </g>
    </g>
    <g id="xtick_13">
     <g id="line2d_13">
      <g>
       <use style="stroke:#000000;stroke-width:0.8;" x="83.265265" xlink:href="#m7673d887eb" y="301.8675"/>
      </g>
     </g>
     <g id="text_13">
      <!-- 13 -->
      <g transform="translate(78.175265 314.94625)scale(0.08 -0.08)">
       <use xlink:href="#DejaVuSans-49"/>
       <use x="63.623047" xlink:href="#DejaVuSans-51"/>
      </g>
     </g>
    </g>
    <g id="xtick_14">
     <g id="line2d_14">
      <g>
       <use style="stroke:#000000;stroke-width:0.8;" x="85.364008" xlink:href="#m7673d887eb" y="301.8675"/>
      </g>
     </g>
     <g id="text_14">
      <!-- 14 -->
      <g transform="translate(80.274008 314.94625)scale(0.08 -0.08)">
       <use xlink:href="#DejaVuSans-49"/>
       <use x="63.623047" xlink:href="#DejaVuSans-52"/>
      </g>
     </g>
    </g>
    <g id="xtick_15">
     <g id="line2d_15">
      <g>
       <use style="stroke:#000000;stroke-width:0.8;" x="87.462751" xlink:href="#m7673d887eb" y="301.8675"/>
      </g>
     </g>
     <g id="text_15">
      <!-- 15 -->
      <g transform="translate(82.372751 314.94625)scale(0.08 -0.08)">
       <use xlink:href="#DejaVuSans-49"/>
       <use x="63.623047" xlink:href="#DejaVuSans-53"/>
      </g>
     </g>
    </g>
    <g id="xtick_16">
     <g id="line2d_16">
      <g>
       <use style="stroke:#000000;stroke-width:0.8;" x="89.561494" xlink:href="#m7673d887eb" y="301.8675"/>
      </g>
     </g>
     <g id="text_16">
      <!-- 16 -->
      <g transform="translate(84.471494 314.94625)scale(0.08 -0.08)">
       <use xlink:href="#DejaVuSans-49"/>
       <use x="63.623047" xlink:href="#DejaVuSans-54"/>
      </g>
     </g>
    </g>
    <g id="xtick_17">
     <g id="line2d_17">
      <g>
       <use style="stroke:#000000;stroke-width:0.8;" x="91.660236" xlink:href="#m7673d887eb" y="301.8675"/>
      </g>
     </g>
     <g id="text_17">
      <!-- 17 -->
      <g transform="translate(86.570236 314.94625)scale(0.08 -0.08)">
       <use xlink:href="#DejaVuSans-49"/>
       <use x="63.623047" xlink:href="#DejaVuSans-55"/>
      </g>
     </g>
    </g>
    <g id="xtick_18">
     <g id="line2d_18">
      <g>
       <use style="stroke:#000000;stroke-width:0.8;" x="93.758979" xlink:href="#m7673d887eb" y="301.8675"/>
      </g>
     </g>
     <g id="text_18">
      <!-- 18 -->
      <g transform="translate(88.668979 314.94625)scale(0.08 -0.08)">
       <use xlink:href="#DejaVuSans-49"/>
       <use x="63.623047" xlink:href="#DejaVuSans-56"/>
      </g>
     </g>
    </g>
    <g id="xtick_19">
     <g id="line2d_19">
      <g>
       <use style="stroke:#000000;stroke-width:0.8;" x="95.857722" xlink:href="#m7673d887eb" y="301.8675"/>
      </g>
     </g>
     <g id="text_19">
      <!-- 19 -->
      <g transform="translate(90.767722 314.94625)scale(0.08 -0.08)">
       <use xlink:href="#DejaVuSans-49"/>
       <use x="63.623047" xlink:href="#DejaVuSans-57"/>
      </g>
     </g>
    </g>
    <g id="xtick_20">
     <g id="line2d_20">
      <g>
       <use style="stroke:#000000;stroke-width:0.8;" x="97.956465" xlink:href="#m7673d887eb" y="301.8675"/>
      </g>
     </g>
     <g id="text_20">
      <!-- 20 -->
      <g transform="translate(92.866465 314.94625)scale(0.08 -0.08)">
       <use xlink:href="#DejaVuSans-50"/>
       <use x="63.623047" xlink:href="#DejaVuSans-48"/>
      </g>
     </g>
    </g>
    <g id="xtick_21">
     <g id="line2d_21">
      <g>
       <use style="stroke:#000000;stroke-width:0.8;" x="100.055208" xlink:href="#m7673d887eb" y="301.8675"/>
      </g>
     </g>
     <g id="text_21">
      <!-- 21 -->
      <g transform="translate(94.965208 314.94625)scale(0.08 -0.08)">
       <use xlink:href="#DejaVuSans-50"/>
       <use x="63.623047" xlink:href="#DejaVuSans-49"/>
      </g>
     </g>
    </g>
    <g id="xtick_22">
     <g id="line2d_22">
      <g>
       <use style="stroke:#000000;stroke-width:0.8;" x="102.153951" xlink:href="#m7673d887eb" y="301.8675"/>
      </g>
     </g>
     <g id="text_22">
      <!-- 22 -->
      <g transform="translate(97.063951 314.94625)scale(0.08 -0.08)">
       <use xlink:href="#DejaVuSans-50"/>
       <use x="63.623047" xlink:href="#DejaVuSans-50"/>
      </g>
     </g>
    </g>
    <g id="xtick_23">
     <g id="line2d_23">
      <g>
       <use style="stroke:#000000;stroke-width:0.8;" x="104.252694" xlink:href="#m7673d887eb" y="301.8675"/>
      </g>
     </g>
     <g id="text_23">
      <!-- 23 -->
      <g transform="translate(99.162694 314.94625)scale(0.08 -0.08)">
       <use xlink:href="#DejaVuSans-50"/>
       <use x="63.623047" xlink:href="#DejaVuSans-51"/>
      </g>
     </g>
    </g>
    <g id="xtick_24">
     <g id="line2d_24">
      <g>
       <use style="stroke:#000000;stroke-width:0.8;" x="106.351437" xlink:href="#m7673d887eb" y="301.8675"/>
      </g>
     </g>
     <g id="text_24">
      <!-- 24 -->
      <g transform="translate(101.261437 314.94625)scale(0.08 -0.08)">
       <use xlink:href="#DejaVuSans-50"/>
       <use x="63.623047" xlink:href="#DejaVuSans-52"/>
      </g>
     </g>
    </g>
    <g id="xtick_25">
     <g id="line2d_25">
      <g>
       <use style="stroke:#000000;stroke-width:0.8;" x="108.45018" xlink:href="#m7673d887eb" y="301.8675"/>
      </g>
     </g>
     <g id="text_25">
      <!-- 25 -->
      <g transform="translate(103.36018 314.94625)scale(0.08 -0.08)">
       <use xlink:href="#DejaVuSans-50"/>
       <use x="63.623047" xlink:href="#DejaVuSans-53"/>
      </g>
     </g>
    </g>
    <g id="xtick_26">
     <g id="line2d_26">
      <g>
       <use style="stroke:#000000;stroke-width:0.8;" x="110.548923" xlink:href="#m7673d887eb" y="301.8675"/>
      </g>
     </g>
     <g id="text_26">
      <!-- 26 -->
      <g transform="translate(105.458923 314.94625)scale(0.08 -0.08)">
       <use xlink:href="#DejaVuSans-50"/>
       <use x="63.623047" xlink:href="#DejaVuSans-54"/>
      </g>
     </g>
    </g>
    <g id="xtick_27">
     <g id="line2d_27">
      <g>
       <use style="stroke:#000000;stroke-width:0.8;" x="112.647666" xlink:href="#m7673d887eb" y="301.8675"/>
      </g>
     </g>
     <g id="text_27">
      <!-- 27 -->
      <g transform="translate(107.557666 314.94625)scale(0.08 -0.08)">
       <use xlink:href="#DejaVuSans-50"/>
       <use x="63.623047" xlink:href="#DejaVuSans-55"/>
      </g>
     </g>
    </g>
    <g id="xtick_28">
     <g id="line2d_28">
      <g>
       <use style="stroke:#000000;stroke-width:0.8;" x="114.746409" xlink:href="#m7673d887eb" y="301.8675"/>
      </g>
     </g>
     <g id="text_28">
      <!-- 28 -->
      <g transform="translate(109.656409 314.94625)scale(0.08 -0.08)">
       <use xlink:href="#DejaVuSans-50"/>
       <use x="63.623047" xlink:href="#DejaVuSans-56"/>
      </g>
     </g>
    </g>
    <g id="xtick_29">
     <g id="line2d_29">
      <g>
       <use style="stroke:#000000;stroke-width:0.8;" x="116.845152" xlink:href="#m7673d887eb" y="301.8675"/>
      </g>
     </g>
     <g id="text_29">
      <!-- 29 -->
      <g transform="translate(111.755152 314.94625)scale(0.08 -0.08)">
       <use xlink:href="#DejaVuSans-50"/>
       <use x="63.623047" xlink:href="#DejaVuSans-57"/>
      </g>
     </g>
    </g>
    <g id="xtick_30">
     <g id="line2d_30">
      <g>
       <use style="stroke:#000000;stroke-width:0.8;" x="118.943895" xlink:href="#m7673d887eb" y="301.8675"/>
      </g>
     </g>
     <g id="text_30">
      <!-- 30 -->
      <g transform="translate(113.853895 314.94625)scale(0.08 -0.08)">
       <use xlink:href="#DejaVuSans-51"/>
       <use x="63.623047" xlink:href="#DejaVuSans-48"/>
      </g>
     </g>
    </g>
    <g id="xtick_31">
     <g id="line2d_31">
      <g>
       <use style="stroke:#000000;stroke-width:0.8;" x="121.042638" xlink:href="#m7673d887eb" y="301.8675"/>
      </g>
     </g>
     <g id="text_31">
      <!-- 31 -->
      <g transform="translate(115.952638 314.94625)scale(0.08 -0.08)">
       <use xlink:href="#DejaVuSans-51"/>
       <use x="63.623047" xlink:href="#DejaVuSans-49"/>
      </g>
     </g>
    </g>
    <g id="xtick_32">
     <g id="line2d_32">
      <g>
       <use style="stroke:#000000;stroke-width:0.8;" x="123.141381" xlink:href="#m7673d887eb" y="301.8675"/>
      </g>
     </g>
     <g id="text_32">
      <!-- 32 -->
      <g transform="translate(118.051381 314.94625)scale(0.08 -0.08)">
       <use xlink:href="#DejaVuSans-51"/>
       <use x="63.623047" xlink:href="#DejaVuSans-50"/>
      </g>
     </g>
    </g>
    <g id="xtick_33">
     <g id="line2d_33">
      <g>
       <use style="stroke:#000000;stroke-width:0.8;" x="125.240124" xlink:href="#m7673d887eb" y="301.8675"/>
      </g>
     </g>
     <g id="text_33">
      <!-- 33 -->
      <g transform="translate(120.150124 314.94625)scale(0.08 -0.08)">
       <use xlink:href="#DejaVuSans-51"/>
       <use x="63.623047" xlink:href="#DejaVuSans-51"/>
      </g>
     </g>
    </g>
    <g id="xtick_34">
     <g id="line2d_34">
      <g>
       <use style="stroke:#000000;stroke-width:0.8;" x="127.338866" xlink:href="#m7673d887eb" y="301.8675"/>
      </g>
     </g>
     <g id="text_34">
      <!-- 34 -->
      <g transform="translate(122.248866 314.94625)scale(0.08 -0.08)">
       <use xlink:href="#DejaVuSans-51"/>
       <use x="63.623047" xlink:href="#DejaVuSans-52"/>
      </g>
     </g>
    </g>
    <g id="xtick_35">
     <g id="line2d_35">
      <g>
       <use style="stroke:#000000;stroke-width:0.8;" x="129.437609" xlink:href="#m7673d887eb" y="301.8675"/>
      </g>
     </g>
     <g id="text_35">
      <!-- 35 -->
      <g transform="translate(124.347609 314.94625)scale(0.08 -0.08)">
       <use xlink:href="#DejaVuSans-51"/>
       <use x="63.623047" xlink:href="#DejaVuSans-53"/>
      </g>
     </g>
    </g>
    <g id="xtick_36">
     <g id="line2d_36">
      <g>
       <use style="stroke:#000000;stroke-width:0.8;" x="131.536352" xlink:href="#m7673d887eb" y="301.8675"/>
      </g>
     </g>
     <g id="text_36">
      <!-- 36 -->
      <g transform="translate(126.446352 314.94625)scale(0.08 -0.08)">
       <use xlink:href="#DejaVuSans-51"/>
       <use x="63.623047" xlink:href="#DejaVuSans-54"/>
      </g>
     </g>
    </g>
    <g id="xtick_37">
     <g id="line2d_37">
      <g>
       <use style="stroke:#000000;stroke-width:0.8;" x="133.635095" xlink:href="#m7673d887eb" y="301.8675"/>
      </g>
     </g>
     <g id="text_37">
      <!-- 37 -->
      <g transform="translate(128.545095 314.94625)scale(0.08 -0.08)">
       <use xlink:href="#DejaVuSans-51"/>
       <use x="63.623047" xlink:href="#DejaVuSans-55"/>
      </g>
     </g>
    </g>
    <g id="xtick_38">
     <g id="line2d_38">
      <g>
       <use style="stroke:#000000;stroke-width:0.8;" x="135.733838" xlink:href="#m7673d887eb" y="301.8675"/>
      </g>
     </g>
     <g id="text_38">
      <!-- 38 -->
      <g transform="translate(130.643838 314.94625)scale(0.08 -0.08)">
       <use xlink:href="#DejaVuSans-51"/>
       <use x="63.623047" xlink:href="#DejaVuSans-56"/>
      </g>
     </g>
    </g>
    <g id="xtick_39">
     <g id="line2d_39">
      <g>
       <use style="stroke:#000000;stroke-width:0.8;" x="137.832581" xlink:href="#m7673d887eb" y="301.8675"/>
      </g>
     </g>
     <g id="text_39">
      <!-- 39 -->
      <g transform="translate(132.742581 314.94625)scale(0.08 -0.08)">
       <use xlink:href="#DejaVuSans-51"/>
       <use x="63.623047" xlink:href="#DejaVuSans-57"/>
      </g>
     </g>
    </g>
    <g id="xtick_40">
     <g id="line2d_40">
      <g>
       <use style="stroke:#000000;stroke-width:0.8;" x="139.931324" xlink:href="#m7673d887eb" y="301.8675"/>
      </g>
     </g>
     <g id="text_40">
      <!-- 40 -->
      <g transform="translate(134.841324 314.94625)scale(0.08 -0.08)">
       <use xlink:href="#DejaVuSans-52"/>
       <use x="63.623047" xlink:href="#DejaVuSans-48"/>
      </g>
     </g>
    </g>
    <g id="xtick_41">
     <g id="line2d_41">
      <g>
       <use style="stroke:#000000;stroke-width:0.8;" x="142.030067" xlink:href="#m7673d887eb" y="301.8675"/>
      </g>
     </g>
     <g id="text_41">
      <!-- 41 -->
      <g transform="translate(136.940067 314.94625)scale(0.08 -0.08)">
       <use xlink:href="#DejaVuSans-52"/>
       <use x="63.623047" xlink:href="#DejaVuSans-49"/>
      </g>
     </g>
    </g>
    <g id="xtick_42">
     <g id="line2d_42">
      <g>
       <use style="stroke:#000000;stroke-width:0.8;" x="144.12881" xlink:href="#m7673d887eb" y="301.8675"/>
      </g>
     </g>
     <g id="text_42">
      <!-- 42 -->
      <g transform="translate(139.03881 314.94625)scale(0.08 -0.08)">
       <use xlink:href="#DejaVuSans-52"/>
       <use x="63.623047" xlink:href="#DejaVuSans-50"/>
      </g>
     </g>
    </g>
    <g id="xtick_43">
     <g id="line2d_43">
      <g>
       <use style="stroke:#000000;stroke-width:0.8;" x="146.227553" xlink:href="#m7673d887eb" y="301.8675"/>
      </g>
     </g>
     <g id="text_43">
      <!-- 43 -->
      <g transform="translate(141.137553 314.94625)scale(0.08 -0.08)">
       <use xlink:href="#DejaVuSans-52"/>
       <use x="63.623047" xlink:href="#DejaVuSans-51"/>
      </g>
     </g>
    </g>
    <g id="xtick_44">
     <g id="line2d_44">
      <g>
       <use style="stroke:#000000;stroke-width:0.8;" x="148.326296" xlink:href="#m7673d887eb" y="301.8675"/>
      </g>
     </g>
     <g id="text_44">
      <!-- 44 -->
      <g transform="translate(143.236296 314.94625)scale(0.08 -0.08)">
       <use xlink:href="#DejaVuSans-52"/>
       <use x="63.623047" xlink:href="#DejaVuSans-52"/>
      </g>
     </g>
    </g>
    <g id="xtick_45">
     <g id="line2d_45">
      <g>
       <use style="stroke:#000000;stroke-width:0.8;" x="150.425039" xlink:href="#m7673d887eb" y="301.8675"/>
      </g>
     </g>
     <g id="text_45">
      <!-- 45 -->
      <g transform="translate(145.335039 314.94625)scale(0.08 -0.08)">
       <use xlink:href="#DejaVuSans-52"/>
       <use x="63.623047" xlink:href="#DejaVuSans-53"/>
      </g>
     </g>
    </g>
    <g id="xtick_46">
     <g id="line2d_46">
      <g>
       <use style="stroke:#000000;stroke-width:0.8;" x="152.523782" xlink:href="#m7673d887eb" y="301.8675"/>
      </g>
     </g>
     <g id="text_46">
      <!-- 46 -->
      <g transform="translate(147.433782 314.94625)scale(0.08 -0.08)">
       <use xlink:href="#DejaVuSans-52"/>
       <use x="63.623047" xlink:href="#DejaVuSans-54"/>
      </g>
     </g>
    </g>
    <g id="xtick_47">
     <g id="line2d_47">
      <g>
       <use style="stroke:#000000;stroke-width:0.8;" x="154.622525" xlink:href="#m7673d887eb" y="301.8675"/>
      </g>
     </g>
     <g id="text_47">
      <!-- 47 -->
      <g transform="translate(149.532525 314.94625)scale(0.08 -0.08)">
       <use xlink:href="#DejaVuSans-52"/>
       <use x="63.623047" xlink:href="#DejaVuSans-55"/>
      </g>
     </g>
    </g>
    <g id="xtick_48">
     <g id="line2d_48">
      <g>
       <use style="stroke:#000000;stroke-width:0.8;" x="156.721268" xlink:href="#m7673d887eb" y="301.8675"/>
      </g>
     </g>
     <g id="text_48">
      <!-- 48 -->
      <g transform="translate(151.631268 314.94625)scale(0.08 -0.08)">
       <use xlink:href="#DejaVuSans-52"/>
       <use x="63.623047" xlink:href="#DejaVuSans-56"/>
      </g>
     </g>
    </g>
    <g id="xtick_49">
     <g id="line2d_49">
      <g>
       <use style="stroke:#000000;stroke-width:0.8;" x="158.820011" xlink:href="#m7673d887eb" y="301.8675"/>
      </g>
     </g>
     <g id="text_49">
      <!-- 49 -->
      <g transform="translate(153.730011 314.94625)scale(0.08 -0.08)">
       <use xlink:href="#DejaVuSans-52"/>
       <use x="63.623047" xlink:href="#DejaVuSans-57"/>
      </g>
     </g>
    </g>
    <g id="xtick_50">
     <g id="line2d_50">
      <g>
       <use style="stroke:#000000;stroke-width:0.8;" x="160.918754" xlink:href="#m7673d887eb" y="301.8675"/>
      </g>
     </g>
     <g id="text_50">
      <!-- 50 -->
      <g transform="translate(155.828754 314.94625)scale(0.08 -0.08)">
       <use xlink:href="#DejaVuSans-53"/>
       <use x="63.623047" xlink:href="#DejaVuSans-48"/>
      </g>
     </g>
    </g>
    <g id="xtick_51">
     <g id="line2d_51">
      <g>
       <use style="stroke:#000000;stroke-width:0.8;" x="163.017496" xlink:href="#m7673d887eb" y="301.8675"/>
      </g>
     </g>
     <g id="text_51">
      <!-- 51 -->
      <g transform="translate(157.927496 314.94625)scale(0.08 -0.08)">
       <use xlink:href="#DejaVuSans-53"/>
       <use x="63.623047" xlink:href="#DejaVuSans-49"/>
      </g>
     </g>
    </g>
    <g id="xtick_52">
     <g id="line2d_52">
      <g>
       <use style="stroke:#000000;stroke-width:0.8;" x="165.116239" xlink:href="#m7673d887eb" y="301.8675"/>
      </g>
     </g>
     <g id="text_52">
      <!-- 52 -->
      <g transform="translate(160.026239 314.94625)scale(0.08 -0.08)">
       <use xlink:href="#DejaVuSans-53"/>
       <use x="63.623047" xlink:href="#DejaVuSans-50"/>
      </g>
     </g>
    </g>
    <g id="xtick_53">
     <g id="line2d_53">
      <g>
       <use style="stroke:#000000;stroke-width:0.8;" x="167.214982" xlink:href="#m7673d887eb" y="301.8675"/>
      </g>
     </g>
     <g id="text_53">
      <!-- 53 -->
      <g transform="translate(162.124982 314.94625)scale(0.08 -0.08)">
       <use xlink:href="#DejaVuSans-53"/>
       <use x="63.623047" xlink:href="#DejaVuSans-51"/>
      </g>
     </g>
    </g>
    <g id="xtick_54">
     <g id="line2d_54">
      <g>
       <use style="stroke:#000000;stroke-width:0.8;" x="169.313725" xlink:href="#m7673d887eb" y="301.8675"/>
      </g>
     </g>
     <g id="text_54">
      <!-- 54 -->
      <g transform="translate(164.223725 314.94625)scale(0.08 -0.08)">
       <use xlink:href="#DejaVuSans-53"/>
       <use x="63.623047" xlink:href="#DejaVuSans-52"/>
      </g>
     </g>
    </g>
    <g id="xtick_55">
     <g id="line2d_55">
      <g>
       <use style="stroke:#000000;stroke-width:0.8;" x="171.412468" xlink:href="#m7673d887eb" y="301.8675"/>
      </g>
     </g>
     <g id="text_55">
      <!-- 55 -->
      <g transform="translate(166.322468 314.94625)scale(0.08 -0.08)">
       <use xlink:href="#DejaVuSans-53"/>
       <use x="63.623047" xlink:href="#DejaVuSans-53"/>
      </g>
     </g>
    </g>
    <g id="xtick_56">
     <g id="line2d_56">
      <g>
       <use style="stroke:#000000;stroke-width:0.8;" x="173.511211" xlink:href="#m7673d887eb" y="301.8675"/>
      </g>
     </g>
     <g id="text_56">
      <!-- 56 -->
      <g transform="translate(168.421211 314.94625)scale(0.08 -0.08)">
       <use xlink:href="#DejaVuSans-53"/>
       <use x="63.623047" xlink:href="#DejaVuSans-54"/>
      </g>
     </g>
    </g>
    <g id="xtick_57">
     <g id="line2d_57">
      <g>
       <use style="stroke:#000000;stroke-width:0.8;" x="175.609954" xlink:href="#m7673d887eb" y="301.8675"/>
      </g>
     </g>
     <g id="text_57">
      <!-- 57 -->
      <g transform="translate(170.519954 314.94625)scale(0.08 -0.08)">
       <use xlink:href="#DejaVuSans-53"/>
       <use x="63.623047" xlink:href="#DejaVuSans-55"/>
      </g>
     </g>
    </g>
    <g id="xtick_58">
     <g id="line2d_58">
      <g>
       <use style="stroke:#000000;stroke-width:0.8;" x="177.708697" xlink:href="#m7673d887eb" y="301.8675"/>
      </g>
     </g>
     <g id="text_58">
      <!-- 58 -->
      <g transform="translate(172.618697 314.94625)scale(0.08 -0.08)">
       <use xlink:href="#DejaVuSans-53"/>
       <use x="63.623047" xlink:href="#DejaVuSans-56"/>
      </g>
     </g>
    </g>
    <g id="xtick_59">
     <g id="line2d_59">
      <g>
       <use style="stroke:#000000;stroke-width:0.8;" x="179.80744" xlink:href="#m7673d887eb" y="301.8675"/>
      </g>
     </g>
     <g id="text_59">
      <!-- 59 -->
      <g transform="translate(174.71744 314.94625)scale(0.08 -0.08)">
       <use xlink:href="#DejaVuSans-53"/>
       <use x="63.623047" xlink:href="#DejaVuSans-57"/>
      </g>
     </g>
    </g>
    <g id="xtick_60">
     <g id="line2d_60">
      <g>
       <use style="stroke:#000000;stroke-width:0.8;" x="181.906183" xlink:href="#m7673d887eb" y="301.8675"/>
      </g>
     </g>
     <g id="text_60">
      <!-- 60 -->
      <g transform="translate(176.816183 314.94625)scale(0.08 -0.08)">
       <use xlink:href="#DejaVuSans-54"/>
       <use x="63.623047" xlink:href="#DejaVuSans-48"/>
      </g>
     </g>
    </g>
    <g id="xtick_61">
     <g id="line2d_61">
      <g>
       <use style="stroke:#000000;stroke-width:0.8;" x="184.004926" xlink:href="#m7673d887eb" y="301.8675"/>
      </g>
     </g>
     <g id="text_61">
      <!-- 61 -->
      <g transform="translate(178.914926 314.94625)scale(0.08 -0.08)">
       <use xlink:href="#DejaVuSans-54"/>
       <use x="63.623047" xlink:href="#DejaVuSans-49"/>
      </g>
     </g>
    </g>
    <g id="xtick_62">
     <g id="line2d_62">
      <g>
       <use style="stroke:#000000;stroke-width:0.8;" x="186.103669" xlink:href="#m7673d887eb" y="301.8675"/>
      </g>
     </g>
     <g id="text_62">
      <!-- 62 -->
      <g transform="translate(181.013669 314.94625)scale(0.08 -0.08)">
       <use xlink:href="#DejaVuSans-54"/>
       <use x="63.623047" xlink:href="#DejaVuSans-50"/>
      </g>
     </g>
    </g>
    <g id="xtick_63">
     <g id="line2d_63">
      <g>
       <use style="stroke:#000000;stroke-width:0.8;" x="188.202412" xlink:href="#m7673d887eb" y="301.8675"/>
      </g>
     </g>
     <g id="text_63">
      <!-- 63 -->
      <g transform="translate(183.112412 314.94625)scale(0.08 -0.08)">
       <use xlink:href="#DejaVuSans-54"/>
       <use x="63.623047" xlink:href="#DejaVuSans-51"/>
      </g>
     </g>
    </g>
    <g id="xtick_64">
     <g id="line2d_64">
      <g>
       <use style="stroke:#000000;stroke-width:0.8;" x="190.301155" xlink:href="#m7673d887eb" y="301.8675"/>
      </g>
     </g>
     <g id="text_64">
      <!-- 64 -->
      <g transform="translate(185.211155 314.94625)scale(0.08 -0.08)">
       <use xlink:href="#DejaVuSans-54"/>
       <use x="63.623047" xlink:href="#DejaVuSans-52"/>
      </g>
     </g>
    </g>
    <g id="xtick_65">
     <g id="line2d_65">
      <g>
       <use style="stroke:#000000;stroke-width:0.8;" x="192.399898" xlink:href="#m7673d887eb" y="301.8675"/>
      </g>
     </g>
     <g id="text_65">
      <!-- 65 -->
      <g transform="translate(187.309898 314.94625)scale(0.08 -0.08)">
       <use xlink:href="#DejaVuSans-54"/>
       <use x="63.623047" xlink:href="#DejaVuSans-53"/>
      </g>
     </g>
    </g>
    <g id="xtick_66">
     <g id="line2d_66">
      <g>
       <use style="stroke:#000000;stroke-width:0.8;" x="194.498641" xlink:href="#m7673d887eb" y="301.8675"/>
      </g>
     </g>
     <g id="text_66">
      <!-- 66 -->
      <g transform="translate(189.408641 314.94625)scale(0.08 -0.08)">
       <use xlink:href="#DejaVuSans-54"/>
       <use x="63.623047" xlink:href="#DejaVuSans-54"/>
      </g>
     </g>
    </g>
    <g id="xtick_67">
     <g id="line2d_67">
      <g>
       <use style="stroke:#000000;stroke-width:0.8;" x="196.597384" xlink:href="#m7673d887eb" y="301.8675"/>
      </g>
     </g>
     <g id="text_67">
      <!-- 67 -->
      <g transform="translate(191.507384 314.94625)scale(0.08 -0.08)">
       <use xlink:href="#DejaVuSans-54"/>
       <use x="63.623047" xlink:href="#DejaVuSans-55"/>
      </g>
     </g>
    </g>
    <g id="xtick_68">
     <g id="line2d_68">
      <g>
       <use style="stroke:#000000;stroke-width:0.8;" x="198.696126" xlink:href="#m7673d887eb" y="301.8675"/>
      </g>
     </g>
     <g id="text_68">
      <!-- 68 -->
      <g transform="translate(193.606126 314.94625)scale(0.08 -0.08)">
       <use xlink:href="#DejaVuSans-54"/>
       <use x="63.623047" xlink:href="#DejaVuSans-56"/>
      </g>
     </g>
    </g>
    <g id="xtick_69">
     <g id="line2d_69">
      <g>
       <use style="stroke:#000000;stroke-width:0.8;" x="200.794869" xlink:href="#m7673d887eb" y="301.8675"/>
      </g>
     </g>
     <g id="text_69">
      <!-- 69 -->
      <g transform="translate(195.704869 314.94625)scale(0.08 -0.08)">
       <use xlink:href="#DejaVuSans-54"/>
       <use x="63.623047" xlink:href="#DejaVuSans-57"/>
      </g>
     </g>
    </g>
    <g id="xtick_70">
     <g id="line2d_70">
      <g>
       <use style="stroke:#000000;stroke-width:0.8;" x="202.893612" xlink:href="#m7673d887eb" y="301.8675"/>
      </g>
     </g>
     <g id="text_70">
      <!-- 70 -->
      <g transform="translate(197.803612 314.94625)scale(0.08 -0.08)">
       <use xlink:href="#DejaVuSans-55"/>
       <use x="63.623047" xlink:href="#DejaVuSans-48"/>
      </g>
     </g>
    </g>
    <g id="xtick_71">
     <g id="line2d_71">
      <g>
       <use style="stroke:#000000;stroke-width:0.8;" x="204.992355" xlink:href="#m7673d887eb" y="301.8675"/>
      </g>
     </g>
     <g id="text_71">
      <!-- 71 -->
      <g transform="translate(199.902355 314.94625)scale(0.08 -0.08)">
       <use xlink:href="#DejaVuSans-55"/>
       <use x="63.623047" xlink:href="#DejaVuSans-49"/>
      </g>
     </g>
    </g>
    <g id="xtick_72">
     <g id="line2d_72">
      <g>
       <use style="stroke:#000000;stroke-width:0.8;" x="207.091098" xlink:href="#m7673d887eb" y="301.8675"/>
      </g>
     </g>
     <g id="text_72">
      <!-- 72 -->
      <g transform="translate(202.001098 314.94625)scale(0.08 -0.08)">
       <use xlink:href="#DejaVuSans-55"/>
       <use x="63.623047" xlink:href="#DejaVuSans-50"/>
      </g>
     </g>
    </g>
    <g id="xtick_73">
     <g id="line2d_73">
      <g>
       <use style="stroke:#000000;stroke-width:0.8;" x="209.189841" xlink:href="#m7673d887eb" y="301.8675"/>
      </g>
     </g>
     <g id="text_73">
      <!-- 73 -->
      <g transform="translate(204.099841 314.94625)scale(0.08 -0.08)">
       <use xlink:href="#DejaVuSans-55"/>
       <use x="63.623047" xlink:href="#DejaVuSans-51"/>
      </g>
     </g>
    </g>
    <g id="xtick_74">
     <g id="line2d_74">
      <g>
       <use style="stroke:#000000;stroke-width:0.8;" x="211.288584" xlink:href="#m7673d887eb" y="301.8675"/>
      </g>
     </g>
     <g id="text_74">
      <!-- 74 -->
      <g transform="translate(206.198584 314.94625)scale(0.08 -0.08)">
       <use xlink:href="#DejaVuSans-55"/>
       <use x="63.623047" xlink:href="#DejaVuSans-52"/>
      </g>
     </g>
    </g>
    <g id="xtick_75">
     <g id="line2d_75">
      <g>
       <use style="stroke:#000000;stroke-width:0.8;" x="213.387327" xlink:href="#m7673d887eb" y="301.8675"/>
      </g>
     </g>
     <g id="text_75">
      <!-- 75 -->
      <g transform="translate(208.297327 314.94625)scale(0.08 -0.08)">
       <use xlink:href="#DejaVuSans-55"/>
       <use x="63.623047" xlink:href="#DejaVuSans-53"/>
      </g>
     </g>
    </g>
    <g id="xtick_76">
     <g id="line2d_76">
      <g>
       <use style="stroke:#000000;stroke-width:0.8;" x="215.48607" xlink:href="#m7673d887eb" y="301.8675"/>
      </g>
     </g>
     <g id="text_76">
      <!-- 76 -->
      <g transform="translate(210.39607 314.94625)scale(0.08 -0.08)">
       <use xlink:href="#DejaVuSans-55"/>
       <use x="63.623047" xlink:href="#DejaVuSans-54"/>
      </g>
     </g>
    </g>
    <g id="xtick_77">
     <g id="line2d_77">
      <g>
       <use style="stroke:#000000;stroke-width:0.8;" x="217.584813" xlink:href="#m7673d887eb" y="301.8675"/>
      </g>
     </g>
     <g id="text_77">
      <!-- 77 -->
      <g transform="translate(212.494813 314.94625)scale(0.08 -0.08)">
       <use xlink:href="#DejaVuSans-55"/>
       <use x="63.623047" xlink:href="#DejaVuSans-55"/>
      </g>
     </g>
    </g>
    <g id="xtick_78">
     <g id="line2d_78">
      <g>
       <use style="stroke:#000000;stroke-width:0.8;" x="219.683556" xlink:href="#m7673d887eb" y="301.8675"/>
      </g>
     </g>
     <g id="text_78">
      <!-- 78 -->
      <g transform="translate(214.593556 314.94625)scale(0.08 -0.08)">
       <use xlink:href="#DejaVuSans-55"/>
       <use x="63.623047" xlink:href="#DejaVuSans-56"/>
      </g>
     </g>
    </g>
    <g id="xtick_79">
     <g id="line2d_79">
      <g>
       <use style="stroke:#000000;stroke-width:0.8;" x="221.782299" xlink:href="#m7673d887eb" y="301.8675"/>
      </g>
     </g>
     <g id="text_79">
      <!-- 79 -->
      <g transform="translate(216.692299 314.94625)scale(0.08 -0.08)">
       <use xlink:href="#DejaVuSans-55"/>
       <use x="63.623047" xlink:href="#DejaVuSans-57"/>
      </g>
     </g>
    </g>
    <g id="xtick_80">
     <g id="line2d_80">
      <g>
       <use style="stroke:#000000;stroke-width:0.8;" x="223.881042" xlink:href="#m7673d887eb" y="301.8675"/>
      </g>
     </g>
     <g id="text_80">
      <!-- 80 -->
      <g transform="translate(218.791042 314.94625)scale(0.08 -0.08)">
       <use xlink:href="#DejaVuSans-56"/>
       <use x="63.623047" xlink:href="#DejaVuSans-48"/>
      </g>
     </g>
    </g>
    <g id="xtick_81">
     <g id="line2d_81">
      <g>
       <use style="stroke:#000000;stroke-width:0.8;" x="225.979785" xlink:href="#m7673d887eb" y="301.8675"/>
      </g>
     </g>
     <g id="text_81">
      <!-- 81 -->
      <g transform="translate(220.889785 314.94625)scale(0.08 -0.08)">
       <use xlink:href="#DejaVuSans-56"/>
       <use x="63.623047" xlink:href="#DejaVuSans-49"/>
      </g>
     </g>
    </g>
    <g id="xtick_82">
     <g id="line2d_82">
      <g>
       <use style="stroke:#000000;stroke-width:0.8;" x="228.078528" xlink:href="#m7673d887eb" y="301.8675"/>
      </g>
     </g>
     <g id="text_82">
      <!-- 82 -->
      <g transform="translate(222.988528 314.94625)scale(0.08 -0.08)">
       <use xlink:href="#DejaVuSans-56"/>
       <use x="63.623047" xlink:href="#DejaVuSans-50"/>
      </g>
     </g>
    </g>
    <g id="xtick_83">
     <g id="line2d_83">
      <g>
       <use style="stroke:#000000;stroke-width:0.8;" x="230.177271" xlink:href="#m7673d887eb" y="301.8675"/>
      </g>
     </g>
     <g id="text_83">
      <!-- 83 -->
      <g transform="translate(225.087271 314.94625)scale(0.08 -0.08)">
       <use xlink:href="#DejaVuSans-56"/>
       <use x="63.623047" xlink:href="#DejaVuSans-51"/>
      </g>
     </g>
    </g>
    <g id="xtick_84">
     <g id="line2d_84">
      <g>
       <use style="stroke:#000000;stroke-width:0.8;" x="232.276014" xlink:href="#m7673d887eb" y="301.8675"/>
      </g>
     </g>
     <g id="text_84">
      <!-- 84 -->
      <g transform="translate(227.186014 314.94625)scale(0.08 -0.08)">
       <use xlink:href="#DejaVuSans-56"/>
       <use x="63.623047" xlink:href="#DejaVuSans-52"/>
      </g>
     </g>
    </g>
    <g id="xtick_85">
     <g id="line2d_85">
      <g>
       <use style="stroke:#000000;stroke-width:0.8;" x="234.374756" xlink:href="#m7673d887eb" y="301.8675"/>
      </g>
     </g>
     <g id="text_85">
      <!-- 85 -->
      <g transform="translate(229.284756 314.94625)scale(0.08 -0.08)">
       <use xlink:href="#DejaVuSans-56"/>
       <use x="63.623047" xlink:href="#DejaVuSans-53"/>
      </g>
     </g>
    </g>
    <g id="xtick_86">
     <g id="line2d_86">
      <g>
       <use style="stroke:#000000;stroke-width:0.8;" x="236.473499" xlink:href="#m7673d887eb" y="301.8675"/>
      </g>
     </g>
     <g id="text_86">
      <!-- 86 -->
      <g transform="translate(231.383499 314.94625)scale(0.08 -0.08)">
       <use xlink:href="#DejaVuSans-56"/>
       <use x="63.623047" xlink:href="#DejaVuSans-54"/>
      </g>
     </g>
    </g>
    <g id="xtick_87">
     <g id="line2d_87">
      <g>
       <use style="stroke:#000000;stroke-width:0.8;" x="238.572242" xlink:href="#m7673d887eb" y="301.8675"/>
      </g>
     </g>
     <g id="text_87">
      <!-- 87 -->
      <g transform="translate(233.482242 314.94625)scale(0.08 -0.08)">
       <use xlink:href="#DejaVuSans-56"/>
       <use x="63.623047" xlink:href="#DejaVuSans-55"/>
      </g>
     </g>
    </g>
    <g id="xtick_88">
     <g id="line2d_88">
      <g>
       <use style="stroke:#000000;stroke-width:0.8;" x="240.670985" xlink:href="#m7673d887eb" y="301.8675"/>
      </g>
     </g>
     <g id="text_88">
      <!-- 88 -->
      <g transform="translate(235.580985 314.94625)scale(0.08 -0.08)">
       <use xlink:href="#DejaVuSans-56"/>
       <use x="63.623047" xlink:href="#DejaVuSans-56"/>
      </g>
     </g>
    </g>
    <g id="xtick_89">
     <g id="line2d_89">
      <g>
       <use style="stroke:#000000;stroke-width:0.8;" x="242.769728" xlink:href="#m7673d887eb" y="301.8675"/>
      </g>
     </g>
     <g id="text_89">
      <!-- 89 -->
      <g transform="translate(237.679728 314.94625)scale(0.08 -0.08)">
       <use xlink:href="#DejaVuSans-56"/>
       <use x="63.623047" xlink:href="#DejaVuSans-57"/>
      </g>
     </g>
    </g>
    <g id="xtick_90">
     <g id="line2d_90">
      <g>
       <use style="stroke:#000000;stroke-width:0.8;" x="244.868471" xlink:href="#m7673d887eb" y="301.8675"/>
      </g>
     </g>
     <g id="text_90">
      <!-- 90 -->
      <g transform="translate(239.778471 314.94625)scale(0.08 -0.08)">
       <use xlink:href="#DejaVuSans-57"/>
       <use x="63.623047" xlink:href="#DejaVuSans-48"/>
      </g>
     </g>
    </g>
    <g id="xtick_91">
     <g id="line2d_91">
      <g>
       <use style="stroke:#000000;stroke-width:0.8;" x="246.967214" xlink:href="#m7673d887eb" y="301.8675"/>
      </g>
     </g>
     <g id="text_91">
      <!-- 91 -->
      <g transform="translate(241.877214 314.94625)scale(0.08 -0.08)">
       <use xlink:href="#DejaVuSans-57"/>
       <use x="63.623047" xlink:href="#DejaVuSans-49"/>
      </g>
     </g>
    </g>
    <g id="xtick_92">
     <g id="line2d_92">
      <g>
       <use style="stroke:#000000;stroke-width:0.8;" x="249.065957" xlink:href="#m7673d887eb" y="301.8675"/>
      </g>
     </g>
     <g id="text_92">
      <!-- 92 -->
      <g transform="translate(243.975957 314.94625)scale(0.08 -0.08)">
       <use xlink:href="#DejaVuSans-57"/>
       <use x="63.623047" xlink:href="#DejaVuSans-50"/>
      </g>
     </g>
    </g>
    <g id="xtick_93">
     <g id="line2d_93">
      <g>
       <use style="stroke:#000000;stroke-width:0.8;" x="251.1647" xlink:href="#m7673d887eb" y="301.8675"/>
      </g>
     </g>
     <g id="text_93">
      <!-- 93 -->
      <g transform="translate(246.0747 314.94625)scale(0.08 -0.08)">
       <use xlink:href="#DejaVuSans-57"/>
       <use x="63.623047" xlink:href="#DejaVuSans-51"/>
      </g>
     </g>
    </g>
    <g id="xtick_94">
     <g id="line2d_94">
      <g>
       <use style="stroke:#000000;stroke-width:0.8;" x="253.263443" xlink:href="#m7673d887eb" y="301.8675"/>
      </g>
     </g>
     <g id="text_94">
      <!-- 94 -->
      <g transform="translate(248.173443 314.94625)scale(0.08 -0.08)">
       <use xlink:href="#DejaVuSans-57"/>
       <use x="63.623047" xlink:href="#DejaVuSans-52"/>
      </g>
     </g>
    </g>
    <g id="xtick_95">
     <g id="line2d_95">
      <g>
       <use style="stroke:#000000;stroke-width:0.8;" x="255.362186" xlink:href="#m7673d887eb" y="301.8675"/>
      </g>
     </g>
     <g id="text_95">
      <!-- 95 -->
      <g transform="translate(250.272186 314.94625)scale(0.08 -0.08)">
       <use xlink:href="#DejaVuSans-57"/>
       <use x="63.623047" xlink:href="#DejaVuSans-53"/>
      </g>
     </g>
    </g>
    <g id="xtick_96">
     <g id="line2d_96">
      <g>
       <use style="stroke:#000000;stroke-width:0.8;" x="257.460929" xlink:href="#m7673d887eb" y="301.8675"/>
      </g>
     </g>
     <g id="text_96">
      <!-- 96 -->
      <g transform="translate(252.370929 314.94625)scale(0.08 -0.08)">
       <use xlink:href="#DejaVuSans-57"/>
       <use x="63.623047" xlink:href="#DejaVuSans-54"/>
      </g>
     </g>
    </g>
    <g id="xtick_97">
     <g id="line2d_97">
      <g>
       <use style="stroke:#000000;stroke-width:0.8;" x="259.559672" xlink:href="#m7673d887eb" y="301.8675"/>
      </g>
     </g>
     <g id="text_97">
      <!-- 97 -->
      <g transform="translate(254.469672 314.94625)scale(0.08 -0.08)">
       <use xlink:href="#DejaVuSans-57"/>
       <use x="63.623047" xlink:href="#DejaVuSans-55"/>
      </g>
     </g>
    </g>
    <g id="xtick_98">
     <g id="line2d_98">
      <g>
       <use style="stroke:#000000;stroke-width:0.8;" x="261.658415" xlink:href="#m7673d887eb" y="301.8675"/>
      </g>
     </g>
     <g id="text_98">
      <!-- 98 -->
      <g transform="translate(256.568415 314.94625)scale(0.08 -0.08)">
       <use xlink:href="#DejaVuSans-57"/>
       <use x="63.623047" xlink:href="#DejaVuSans-56"/>
      </g>
     </g>
    </g>
    <g id="xtick_99">
     <g id="line2d_99">
      <g>
       <use style="stroke:#000000;stroke-width:0.8;" x="263.757158" xlink:href="#m7673d887eb" y="301.8675"/>
      </g>
     </g>
     <g id="text_99">
      <!-- 99 -->
      <g transform="translate(258.667158 314.94625)scale(0.08 -0.08)">
       <use xlink:href="#DejaVuSans-57"/>
       <use x="63.623047" xlink:href="#DejaVuSans-57"/>
      </g>
     </g>
    </g>
    <g id="xtick_100">
     <g id="line2d_100">
      <g>
       <use style="stroke:#000000;stroke-width:0.8;" x="265.855901" xlink:href="#m7673d887eb" y="301.8675"/>
      </g>
     </g>
    </g>
    <g id="text_100">
     <!-- spearman correlation -->
     <defs>
      <path d="M 44.28125 53.078125 
L 44.28125 44.578125 
Q 40.484375 46.53125 36.375 47.5 
Q 32.28125 48.484375 27.875 48.484375 
Q 21.1875 48.484375 17.84375 46.4375 
Q 14.5 44.390625 14.5 40.28125 
Q 14.5 37.15625 16.890625 35.375 
Q 19.28125 33.59375 26.515625 31.984375 
L 29.59375 31.296875 
Q 39.15625 29.25 43.1875 25.515625 
Q 47.21875 21.78125 47.21875 15.09375 
Q 47.21875 7.46875 41.1875 3.015625 
Q 35.15625 -1.421875 24.609375 -1.421875 
Q 20.21875 -1.421875 15.453125 -0.5625 
Q 10.6875 0.296875 5.421875 2 
L 5.421875 11.28125 
Q 10.40625 8.6875 15.234375 7.390625 
Q 20.0625 6.109375 24.8125 6.109375 
Q 31.15625 6.109375 34.5625 8.28125 
Q 37.984375 10.453125 37.984375 14.40625 
Q 37.984375 18.0625 35.515625 20.015625 
Q 33.0625 21.96875 24.703125 23.78125 
L 21.578125 24.515625 
Q 13.234375 26.265625 9.515625 29.90625 
Q 5.8125 33.546875 5.8125 39.890625 
Q 5.8125 47.609375 11.28125 51.796875 
Q 16.75 56 26.8125 56 
Q 31.78125 56 36.171875 55.265625 
Q 40.578125 54.546875 44.28125 53.078125 
z
" id="DejaVuSans-115"/>
      <path d="M 18.109375 8.203125 
L 18.109375 -20.796875 
L 9.078125 -20.796875 
L 9.078125 54.6875 
L 18.109375 54.6875 
L 18.109375 46.390625 
Q 20.953125 51.265625 25.265625 53.625 
Q 29.59375 56 35.59375 56 
Q 45.5625 56 51.78125 48.09375 
Q 58.015625 40.1875 58.015625 27.296875 
Q 58.015625 14.40625 51.78125 6.484375 
Q 45.5625 -1.421875 35.59375 -1.421875 
Q 29.59375 -1.421875 25.265625 0.953125 
Q 20.953125 3.328125 18.109375 8.203125 
z
M 48.6875 27.296875 
Q 48.6875 37.203125 44.609375 42.84375 
Q 40.53125 48.484375 33.40625 48.484375 
Q 26.265625 48.484375 22.1875 42.84375 
Q 18.109375 37.203125 18.109375 27.296875 
Q 18.109375 17.390625 22.1875 11.75 
Q 26.265625 6.109375 33.40625 6.109375 
Q 40.53125 6.109375 44.609375 11.75 
Q 48.6875 17.390625 48.6875 27.296875 
z
" id="DejaVuSans-112"/>
      <path d="M 56.203125 29.59375 
L 56.203125 25.203125 
L 14.890625 25.203125 
Q 15.484375 15.921875 20.484375 11.0625 
Q 25.484375 6.203125 34.421875 6.203125 
Q 39.59375 6.203125 44.453125 7.46875 
Q 49.3125 8.734375 54.109375 11.28125 
L 54.109375 2.78125 
Q 49.265625 0.734375 44.1875 -0.34375 
Q 39.109375 -1.421875 33.890625 -1.421875 
Q 20.796875 -1.421875 13.15625 6.1875 
Q 5.515625 13.8125 5.515625 26.8125 
Q 5.515625 40.234375 12.765625 48.109375 
Q 20.015625 56 32.328125 56 
Q 43.359375 56 49.78125 48.890625 
Q 56.203125 41.796875 56.203125 29.59375 
z
M 47.21875 32.234375 
Q 47.125 39.59375 43.09375 43.984375 
Q 39.0625 48.390625 32.421875 48.390625 
Q 24.90625 48.390625 20.390625 44.140625 
Q 15.875 39.890625 15.1875 32.171875 
z
" id="DejaVuSans-101"/>
      <path d="M 34.28125 27.484375 
Q 23.390625 27.484375 19.1875 25 
Q 14.984375 22.515625 14.984375 16.5 
Q 14.984375 11.71875 18.140625 8.90625 
Q 21.296875 6.109375 26.703125 6.109375 
Q 34.1875 6.109375 38.703125 11.40625 
Q 43.21875 16.703125 43.21875 25.484375 
L 43.21875 27.484375 
z
M 52.203125 31.203125 
L 52.203125 0 
L 43.21875 0 
L 43.21875 8.296875 
Q 40.140625 3.328125 35.546875 0.953125 
Q 30.953125 -1.421875 24.3125 -1.421875 
Q 15.921875 -1.421875 10.953125 3.296875 
Q 6 8.015625 6 15.921875 
Q 6 25.140625 12.171875 29.828125 
Q 18.359375 34.515625 30.609375 34.515625 
L 43.21875 34.515625 
L 43.21875 35.40625 
Q 43.21875 41.609375 39.140625 45 
Q 35.0625 48.390625 27.6875 48.390625 
Q 23 48.390625 18.546875 47.265625 
Q 14.109375 46.140625 10.015625 43.890625 
L 10.015625 52.203125 
Q 14.9375 54.109375 19.578125 55.046875 
Q 24.21875 56 28.609375 56 
Q 40.484375 56 46.34375 49.84375 
Q 52.203125 43.703125 52.203125 31.203125 
z
" id="DejaVuSans-97"/>
      <path d="M 41.109375 46.296875 
Q 39.59375 47.171875 37.8125 47.578125 
Q 36.03125 48 33.890625 48 
Q 26.265625 48 22.1875 43.046875 
Q 18.109375 38.09375 18.109375 28.8125 
L 18.109375 0 
L 9.078125 0 
L 9.078125 54.6875 
L 18.109375 54.6875 
L 18.109375 46.1875 
Q 20.953125 51.171875 25.484375 53.578125 
Q 30.03125 56 36.53125 56 
Q 37.453125 56 38.578125 55.875 
Q 39.703125 55.765625 41.0625 55.515625 
z
" id="DejaVuSans-114"/>
      <path d="M 52 44.1875 
Q 55.375 50.25 60.0625 53.125 
Q 64.75 56 71.09375 56 
Q 79.640625 56 84.28125 50.015625 
Q 88.921875 44.046875 88.921875 33.015625 
L 88.921875 0 
L 79.890625 0 
L 79.890625 32.71875 
Q 79.890625 40.578125 77.09375 44.375 
Q 74.3125 48.1875 68.609375 48.1875 
Q 61.625 48.1875 57.5625 43.546875 
Q 53.515625 38.921875 53.515625 30.90625 
L 53.515625 0 
L 44.484375 0 
L 44.484375 32.71875 
Q 44.484375 40.625 41.703125 44.40625 
Q 38.921875 48.1875 33.109375 48.1875 
Q 26.21875 48.1875 22.15625 43.53125 
Q 18.109375 38.875 18.109375 30.90625 
L 18.109375 0 
L 9.078125 0 
L 9.078125 54.6875 
L 18.109375 54.6875 
L 18.109375 46.1875 
Q 21.1875 51.21875 25.484375 53.609375 
Q 29.78125 56 35.6875 56 
Q 41.65625 56 45.828125 52.96875 
Q 50 49.953125 52 44.1875 
z
" id="DejaVuSans-109"/>
      <path d="M 54.890625 33.015625 
L 54.890625 0 
L 45.90625 0 
L 45.90625 32.71875 
Q 45.90625 40.484375 42.875 44.328125 
Q 39.84375 48.1875 33.796875 48.1875 
Q 26.515625 48.1875 22.3125 43.546875 
Q 18.109375 38.921875 18.109375 30.90625 
L 18.109375 0 
L 9.078125 0 
L 9.078125 54.6875 
L 18.109375 54.6875 
L 18.109375 46.1875 
Q 21.34375 51.125 25.703125 53.5625 
Q 30.078125 56 35.796875 56 
Q 45.21875 56 50.046875 50.171875 
Q 54.890625 44.34375 54.890625 33.015625 
z
" id="DejaVuSans-110"/>
      <path id="DejaVuSans-32"/>
      <path d="M 48.78125 52.59375 
L 48.78125 44.1875 
Q 44.96875 46.296875 41.140625 47.34375 
Q 37.3125 48.390625 33.40625 48.390625 
Q 24.65625 48.390625 19.8125 42.84375 
Q 14.984375 37.3125 14.984375 27.296875 
Q 14.984375 17.28125 19.8125 11.734375 
Q 24.65625 6.203125 33.40625 6.203125 
Q 37.3125 6.203125 41.140625 7.25 
Q 44.96875 8.296875 48.78125 10.40625 
L 48.78125 2.09375 
Q 45.015625 0.34375 40.984375 -0.53125 
Q 36.96875 -1.421875 32.421875 -1.421875 
Q 20.0625 -1.421875 12.78125 6.34375 
Q 5.515625 14.109375 5.515625 27.296875 
Q 5.515625 40.671875 12.859375 48.328125 
Q 20.21875 56 33.015625 56 
Q 37.15625 56 41.109375 55.140625 
Q 45.0625 54.296875 48.78125 52.59375 
z
" id="DejaVuSans-99"/>
      <path d="M 30.609375 48.390625 
Q 23.390625 48.390625 19.1875 42.75 
Q 14.984375 37.109375 14.984375 27.296875 
Q 14.984375 17.484375 19.15625 11.84375 
Q 23.34375 6.203125 30.609375 6.203125 
Q 37.796875 6.203125 41.984375 11.859375 
Q 46.1875 17.53125 46.1875 27.296875 
Q 46.1875 37.015625 41.984375 42.703125 
Q 37.796875 48.390625 30.609375 48.390625 
z
M 30.609375 56 
Q 42.328125 56 49.015625 48.375 
Q 55.71875 40.765625 55.71875 27.296875 
Q 55.71875 13.875 49.015625 6.21875 
Q 42.328125 -1.421875 30.609375 -1.421875 
Q 18.84375 -1.421875 12.171875 6.21875 
Q 5.515625 13.875 5.515625 27.296875 
Q 5.515625 40.765625 12.171875 48.375 
Q 18.84375 56 30.609375 56 
z
" id="DejaVuSans-111"/>
      <path d="M 9.421875 75.984375 
L 18.40625 75.984375 
L 18.40625 0 
L 9.421875 0 
z
" id="DejaVuSans-108"/>
      <path d="M 18.3125 70.21875 
L 18.3125 54.6875 
L 36.8125 54.6875 
L 36.8125 47.703125 
L 18.3125 47.703125 
L 18.3125 18.015625 
Q 18.3125 11.328125 20.140625 9.421875 
Q 21.96875 7.515625 27.59375 7.515625 
L 36.8125 7.515625 
L 36.8125 0 
L 27.59375 0 
Q 17.1875 0 13.234375 3.875 
Q 9.28125 7.765625 9.28125 18.015625 
L 9.28125 47.703125 
L 2.6875 47.703125 
L 2.6875 54.6875 
L 9.28125 54.6875 
L 9.28125 70.21875 
z
" id="DejaVuSans-116"/>
      <path d="M 9.421875 54.6875 
L 18.40625 54.6875 
L 18.40625 0 
L 9.421875 0 
z
M 9.421875 75.984375 
L 18.40625 75.984375 
L 18.40625 64.59375 
L 9.421875 64.59375 
z
" id="DejaVuSans-105"/>
     </defs>
     <g transform="translate(108.2775 328.208437)scale(0.1 -0.1)">
      <use xlink:href="#DejaVuSans-115"/>
      <use x="52.099609" xlink:href="#DejaVuSans-112"/>
      <use x="115.576172" xlink:href="#DejaVuSans-101"/>
      <use x="177.099609" xlink:href="#DejaVuSans-97"/>
      <use x="238.378906" xlink:href="#DejaVuSans-114"/>
      <use x="279.476562" xlink:href="#DejaVuSans-109"/>
      <use x="376.888672" xlink:href="#DejaVuSans-97"/>
      <use x="438.167969" xlink:href="#DejaVuSans-110"/>
      <use x="501.546875" xlink:href="#DejaVuSans-32"/>
      <use x="533.333984" xlink:href="#DejaVuSans-99"/>
      <use x="588.314453" xlink:href="#DejaVuSans-111"/>
      <use x="649.496094" xlink:href="#DejaVuSans-114"/>
      <use x="690.59375" xlink:href="#DejaVuSans-114"/>
      <use x="731.675781" xlink:href="#DejaVuSans-101"/>
      <use x="793.199219" xlink:href="#DejaVuSans-108"/>
      <use x="820.982422" xlink:href="#DejaVuSans-97"/>
      <use x="882.261719" xlink:href="#DejaVuSans-116"/>
      <use x="921.470703" xlink:href="#DejaVuSans-105"/>
      <use x="949.253906" xlink:href="#DejaVuSans-111"/>
      <use x="1010.435547" xlink:href="#DejaVuSans-110"/>
     </g>
    </g>
   </g>
   <g id="matplotlib.axis_2">
    <g id="ytick_1">
     <g id="line2d_101">
      <defs>
       <path d="M 0 0 
L -3.5 0 
" id="m37e8a72e7c" style="stroke:#000000;stroke-width:0.8;"/>
      </defs>
      <g>
       <use style="stroke:#000000;stroke-width:0.8;" x="46.768125" xlink:href="#m37e8a72e7c" y="301.8675"/>
      </g>
     </g>
     <g id="text_101">
      <!-- 1.00 -->
      <defs>
       <path d="M 10.59375 35.5 
L 73.1875 35.5 
L 73.1875 27.203125 
L 10.59375 27.203125 
z
" id="DejaVuSans-8722"/>
       <path d="M 10.6875 12.40625 
L 21 12.40625 
L 21 0 
L 10.6875 0 
z
" id="DejaVuSans-46"/>
      </defs>
      <g transform="translate(9.122812 305.666719)scale(0.1 -0.1)">
       <use xlink:href="#DejaVuSans-8722"/>
       <use x="83.789062" xlink:href="#DejaVuSans-49"/>
       <use x="147.412109" xlink:href="#DejaVuSans-46"/>
       <use x="179.199219" xlink:href="#DejaVuSans-48"/>
       <use x="242.822266" xlink:href="#DejaVuSans-48"/>
      </g>
     </g>
    </g>
    <g id="ytick_2">
     <g id="line2d_102">
      <g>
       <use style="stroke:#000000;stroke-width:0.8;" x="46.768125" xlink:href="#m37e8a72e7c" y="268.6035"/>
      </g>
     </g>
     <g id="text_102">
      <!-- 0.75 -->
      <g transform="translate(9.122812 272.402719)scale(0.1 -0.1)">
       <use xlink:href="#DejaVuSans-8722"/>
       <use x="83.789062" xlink:href="#DejaVuSans-48"/>
       <use x="147.412109" xlink:href="#DejaVuSans-46"/>
       <use x="179.199219" xlink:href="#DejaVuSans-55"/>
       <use x="242.822266" xlink:href="#DejaVuSans-53"/>
      </g>
     </g>
    </g>
    <g id="ytick_3">
     <g id="line2d_103">
      <g>
       <use style="stroke:#000000;stroke-width:0.8;" x="46.768125" xlink:href="#m37e8a72e7c" y="235.3395"/>
      </g>
     </g>
     <g id="text_103">
      <!-- 0.50 -->
      <g transform="translate(9.122812 239.138719)scale(0.1 -0.1)">
       <use xlink:href="#DejaVuSans-8722"/>
       <use x="83.789062" xlink:href="#DejaVuSans-48"/>
       <use x="147.412109" xlink:href="#DejaVuSans-46"/>
       <use x="179.199219" xlink:href="#DejaVuSans-53"/>
       <use x="242.822266" xlink:href="#DejaVuSans-48"/>
      </g>
     </g>
    </g>
    <g id="ytick_4">
     <g id="line2d_104">
      <g>
       <use style="stroke:#000000;stroke-width:0.8;" x="46.768125" xlink:href="#m37e8a72e7c" y="202.0755"/>
      </g>
     </g>
     <g id="text_104">
      <!-- 0.25 -->
      <g transform="translate(9.122812 205.874719)scale(0.1 -0.1)">
       <use xlink:href="#DejaVuSans-8722"/>
       <use x="83.789062" xlink:href="#DejaVuSans-48"/>
       <use x="147.412109" xlink:href="#DejaVuSans-46"/>
       <use x="179.199219" xlink:href="#DejaVuSans-50"/>
       <use x="242.822266" xlink:href="#DejaVuSans-53"/>
      </g>
     </g>
    </g>
    <g id="ytick_5">
     <g id="line2d_105">
      <g>
       <use style="stroke:#000000;stroke-width:0.8;" x="46.768125" xlink:href="#m37e8a72e7c" y="168.8115"/>
      </g>
     </g>
     <g id="text_105">
      <!-- 0.00 -->
      <g transform="translate(17.5025 172.610719)scale(0.1 -0.1)">
       <use xlink:href="#DejaVuSans-48"/>
       <use x="63.623047" xlink:href="#DejaVuSans-46"/>
       <use x="95.410156" xlink:href="#DejaVuSans-48"/>
       <use x="159.033203" xlink:href="#DejaVuSans-48"/>
      </g>
     </g>
    </g>
    <g id="ytick_6">
     <g id="line2d_106">
      <g>
       <use style="stroke:#000000;stroke-width:0.8;" x="46.768125" xlink:href="#m37e8a72e7c" y="135.5475"/>
      </g>
     </g>
     <g id="text_106">
      <!-- 0.25 -->
      <g transform="translate(17.5025 139.346719)scale(0.1 -0.1)">
       <use xlink:href="#DejaVuSans-48"/>
       <use x="63.623047" xlink:href="#DejaVuSans-46"/>
       <use x="95.410156" xlink:href="#DejaVuSans-50"/>
       <use x="159.033203" xlink:href="#DejaVuSans-53"/>
      </g>
     </g>
    </g>
    <g id="ytick_7">
     <g id="line2d_107">
      <g>
       <use style="stroke:#000000;stroke-width:0.8;" x="46.768125" xlink:href="#m37e8a72e7c" y="102.2835"/>
      </g>
     </g>
     <g id="text_107">
      <!-- 0.50 -->
      <g transform="translate(17.5025 106.082719)scale(0.1 -0.1)">
       <use xlink:href="#DejaVuSans-48"/>
       <use x="63.623047" xlink:href="#DejaVuSans-46"/>
       <use x="95.410156" xlink:href="#DejaVuSans-53"/>
       <use x="159.033203" xlink:href="#DejaVuSans-48"/>
      </g>
     </g>
    </g>
    <g id="ytick_8">
     <g id="line2d_108">
      <g>
       <use style="stroke:#000000;stroke-width:0.8;" x="46.768125" xlink:href="#m37e8a72e7c" y="69.0195"/>
      </g>
     </g>
     <g id="text_108">
      <!-- 0.75 -->
      <g transform="translate(17.5025 72.818719)scale(0.1 -0.1)">
       <use xlink:href="#DejaVuSans-48"/>
       <use x="63.623047" xlink:href="#DejaVuSans-46"/>
       <use x="95.410156" xlink:href="#DejaVuSans-55"/>
       <use x="159.033203" xlink:href="#DejaVuSans-53"/>
      </g>
     </g>
    </g>
    <g id="ytick_9">
     <g id="line2d_109">
      <g>
       <use style="stroke:#000000;stroke-width:0.8;" x="46.768125" xlink:href="#m37e8a72e7c" y="35.7555"/>
      </g>
     </g>
     <g id="text_109">
      <!-- 1.00 -->
      <g transform="translate(17.5025 39.554719)scale(0.1 -0.1)">
       <use xlink:href="#DejaVuSans-49"/>
       <use x="63.623047" xlink:href="#DejaVuSans-46"/>
       <use x="95.410156" xlink:href="#DejaVuSans-48"/>
       <use x="159.033203" xlink:href="#DejaVuSans-48"/>
      </g>
     </g>
    </g>
   </g>
   <g id="patch_103">
    <path d="M 46.768125 301.8675 
L 46.768125 35.7555 
" style="fill:none;stroke:#000000;stroke-linecap:square;stroke-linejoin:miter;stroke-width:0.8;"/>
   </g>
   <g id="patch_104">
    <path d="M 277.168125 301.8675 
L 277.168125 35.7555 
" style="fill:none;stroke:#000000;stroke-linecap:square;stroke-linejoin:miter;stroke-width:0.8;"/>
   </g>
   <g id="patch_105">
    <path d="M 46.768125 301.8675 
L 277.168125 301.8675 
" style="fill:none;stroke:#000000;stroke-linecap:square;stroke-linejoin:miter;stroke-width:0.8;"/>
   </g>
   <g id="patch_106">
    <path d="M 46.768125 35.7555 
L 277.168125 35.7555 
" style="fill:none;stroke:#000000;stroke-linecap:square;stroke-linejoin:miter;stroke-width:0.8;"/>
   </g>
   <g id="text_110">
    <!-- Correlation between each component and the label -->
    <defs>
     <path d="M 64.40625 67.28125 
L 64.40625 56.890625 
Q 59.421875 61.53125 53.78125 63.8125 
Q 48.140625 66.109375 41.796875 66.109375 
Q 29.296875 66.109375 22.65625 58.46875 
Q 16.015625 50.828125 16.015625 36.375 
Q 16.015625 21.96875 22.65625 14.328125 
Q 29.296875 6.6875 41.796875 6.6875 
Q 48.140625 6.6875 53.78125 8.984375 
Q 59.421875 11.28125 64.40625 15.921875 
L 64.40625 5.609375 
Q 59.234375 2.09375 53.4375 0.328125 
Q 47.65625 -1.421875 41.21875 -1.421875 
Q 24.65625 -1.421875 15.125 8.703125 
Q 5.609375 18.84375 5.609375 36.375 
Q 5.609375 53.953125 15.125 64.078125 
Q 24.65625 74.21875 41.21875 74.21875 
Q 47.75 74.21875 53.53125 72.484375 
Q 59.328125 70.75 64.40625 67.28125 
z
" id="DejaVuSans-67"/>
     <path d="M 48.6875 27.296875 
Q 48.6875 37.203125 44.609375 42.84375 
Q 40.53125 48.484375 33.40625 48.484375 
Q 26.265625 48.484375 22.1875 42.84375 
Q 18.109375 37.203125 18.109375 27.296875 
Q 18.109375 17.390625 22.1875 11.75 
Q 26.265625 6.109375 33.40625 6.109375 
Q 40.53125 6.109375 44.609375 11.75 
Q 48.6875 17.390625 48.6875 27.296875 
z
M 18.109375 46.390625 
Q 20.953125 51.265625 25.265625 53.625 
Q 29.59375 56 35.59375 56 
Q 45.5625 56 51.78125 48.09375 
Q 58.015625 40.1875 58.015625 27.296875 
Q 58.015625 14.40625 51.78125 6.484375 
Q 45.5625 -1.421875 35.59375 -1.421875 
Q 29.59375 -1.421875 25.265625 0.953125 
Q 20.953125 3.328125 18.109375 8.203125 
L 18.109375 0 
L 9.078125 0 
L 9.078125 75.984375 
L 18.109375 75.984375 
z
" id="DejaVuSans-98"/>
     <path d="M 4.203125 54.6875 
L 13.1875 54.6875 
L 24.421875 12.015625 
L 35.59375 54.6875 
L 46.1875 54.6875 
L 57.421875 12.015625 
L 68.609375 54.6875 
L 77.59375 54.6875 
L 63.28125 0 
L 52.6875 0 
L 40.921875 44.828125 
L 29.109375 0 
L 18.5 0 
z
" id="DejaVuSans-119"/>
     <path d="M 54.890625 33.015625 
L 54.890625 0 
L 45.90625 0 
L 45.90625 32.71875 
Q 45.90625 40.484375 42.875 44.328125 
Q 39.84375 48.1875 33.796875 48.1875 
Q 26.515625 48.1875 22.3125 43.546875 
Q 18.109375 38.921875 18.109375 30.90625 
L 18.109375 0 
L 9.078125 0 
L 9.078125 75.984375 
L 18.109375 75.984375 
L 18.109375 46.1875 
Q 21.34375 51.125 25.703125 53.5625 
Q 30.078125 56 35.796875 56 
Q 45.21875 56 50.046875 50.171875 
Q 54.890625 44.34375 54.890625 33.015625 
z
" id="DejaVuSans-104"/>
     <path d="M 45.40625 46.390625 
L 45.40625 75.984375 
L 54.390625 75.984375 
L 54.390625 0 
L 45.40625 0 
L 45.40625 8.203125 
Q 42.578125 3.328125 38.25 0.953125 
Q 33.9375 -1.421875 27.875 -1.421875 
Q 17.96875 -1.421875 11.734375 6.484375 
Q 5.515625 14.40625 5.515625 27.296875 
Q 5.515625 40.1875 11.734375 48.09375 
Q 17.96875 56 27.875 56 
Q 33.9375 56 38.25 53.625 
Q 42.578125 51.265625 45.40625 46.390625 
z
M 14.796875 27.296875 
Q 14.796875 17.390625 18.875 11.75 
Q 22.953125 6.109375 30.078125 6.109375 
Q 37.203125 6.109375 41.296875 11.75 
Q 45.40625 17.390625 45.40625 27.296875 
Q 45.40625 37.203125 41.296875 42.84375 
Q 37.203125 48.484375 30.078125 48.484375 
Q 22.953125 48.484375 18.875 42.84375 
Q 14.796875 37.203125 14.796875 27.296875 
z
" id="DejaVuSans-100"/>
    </defs>
    <g transform="translate(7.2 16.318125)scale(0.12 -0.12)">
     <use xlink:href="#DejaVuSans-67"/>
     <use x="69.824219" xlink:href="#DejaVuSans-111"/>
     <use x="131.005859" xlink:href="#DejaVuSans-114"/>
     <use x="172.103516" xlink:href="#DejaVuSans-114"/>
     <use x="213.185547" xlink:href="#DejaVuSans-101"/>
     <use x="274.708984" xlink:href="#DejaVuSans-108"/>
     <use x="302.492188" xlink:href="#DejaVuSans-97"/>
     <use x="363.771484" xlink:href="#DejaVuSans-116"/>
     <use x="402.980469" xlink:href="#DejaVuSans-105"/>
     <use x="430.763672" xlink:href="#DejaVuSans-111"/>
     <use x="491.945312" xlink:href="#DejaVuSans-110"/>
     <use x="555.324219" xlink:href="#DejaVuSans-32"/>
     <use x="587.111328" xlink:href="#DejaVuSans-98"/>
     <use x="650.587891" xlink:href="#DejaVuSans-101"/>
     <use x="712.111328" xlink:href="#DejaVuSans-116"/>
     <use x="751.320312" xlink:href="#DejaVuSans-119"/>
     <use x="833.107422" xlink:href="#DejaVuSans-101"/>
     <use x="894.630859" xlink:href="#DejaVuSans-101"/>
     <use x="956.154297" xlink:href="#DejaVuSans-110"/>
     <use x="1019.533203" xlink:href="#DejaVuSans-32"/>
     <use x="1051.320312" xlink:href="#DejaVuSans-101"/>
     <use x="1112.84375" xlink:href="#DejaVuSans-97"/>
     <use x="1174.123047" xlink:href="#DejaVuSans-99"/>
     <use x="1229.103516" xlink:href="#DejaVuSans-104"/>
     <use x="1292.482422" xlink:href="#DejaVuSans-32"/>
     <use x="1324.269531" xlink:href="#DejaVuSans-99"/>
     <use x="1379.25" xlink:href="#DejaVuSans-111"/>
     <use x="1440.431641" xlink:href="#DejaVuSans-109"/>
     <use x="1537.84375" xlink:href="#DejaVuSans-112"/>
     <use x="1601.320312" xlink:href="#DejaVuSans-111"/>
     <use x="1662.501953" xlink:href="#DejaVuSans-110"/>
     <use x="1725.880859" xlink:href="#DejaVuSans-101"/>
     <use x="1787.404297" xlink:href="#DejaVuSans-110"/>
     <use x="1850.783203" xlink:href="#DejaVuSans-116"/>
     <use x="1889.992188" xlink:href="#DejaVuSans-32"/>
     <use x="1921.779297" xlink:href="#DejaVuSans-97"/>
     <use x="1983.058594" xlink:href="#DejaVuSans-110"/>
     <use x="2046.4375" xlink:href="#DejaVuSans-100"/>
     <use x="2109.914062" xlink:href="#DejaVuSans-32"/>
     <use x="2141.701172" xlink:href="#DejaVuSans-116"/>
     <use x="2180.910156" xlink:href="#DejaVuSans-104"/>
     <use x="2244.289062" xlink:href="#DejaVuSans-101"/>
     <use x="2305.8125" xlink:href="#DejaVuSans-32"/>
     <use x="2337.599609" xlink:href="#DejaVuSans-108"/>
     <use x="2365.382812" xlink:href="#DejaVuSans-97"/>
     <use x="2426.662109" xlink:href="#DejaVuSans-98"/>
     <use x="2490.138672" xlink:href="#DejaVuSans-101"/>
     <use x="2551.662109" xlink:href="#DejaVuSans-108"/>
    </g>
    <!-- prognosis task -->
    <defs>
     <path d="M 45.40625 27.984375 
Q 45.40625 37.75 41.375 43.109375 
Q 37.359375 48.484375 30.078125 48.484375 
Q 22.859375 48.484375 18.828125 43.109375 
Q 14.796875 37.75 14.796875 27.984375 
Q 14.796875 18.265625 18.828125 12.890625 
Q 22.859375 7.515625 30.078125 7.515625 
Q 37.359375 7.515625 41.375 12.890625 
Q 45.40625 18.265625 45.40625 27.984375 
z
M 54.390625 6.78125 
Q 54.390625 -7.171875 48.1875 -13.984375 
Q 42 -20.796875 29.203125 -20.796875 
Q 24.46875 -20.796875 20.265625 -20.09375 
Q 16.0625 -19.390625 12.109375 -17.921875 
L 12.109375 -9.1875 
Q 16.0625 -11.328125 19.921875 -12.34375 
Q 23.78125 -13.375 27.78125 -13.375 
Q 36.625 -13.375 41.015625 -8.765625 
Q 45.40625 -4.15625 45.40625 5.171875 
L 45.40625 9.625 
Q 42.625 4.78125 38.28125 2.390625 
Q 33.9375 0 27.875 0 
Q 17.828125 0 11.671875 7.65625 
Q 5.515625 15.328125 5.515625 27.984375 
Q 5.515625 40.671875 11.671875 48.328125 
Q 17.828125 56 27.875 56 
Q 33.9375 56 38.28125 53.609375 
Q 42.625 51.21875 45.40625 46.390625 
L 45.40625 54.6875 
L 54.390625 54.6875 
z
" id="DejaVuSans-103"/>
     <path d="M 9.078125 75.984375 
L 18.109375 75.984375 
L 18.109375 31.109375 
L 44.921875 54.6875 
L 56.390625 54.6875 
L 27.390625 29.109375 
L 57.625 0 
L 45.90625 0 
L 18.109375 26.703125 
L 18.109375 0 
L 9.078125 0 
z
" id="DejaVuSans-107"/>
    </defs>
    <g transform="translate(118.28625 29.7555)scale(0.12 -0.12)">
     <use xlink:href="#DejaVuSans-112"/>
     <use x="63.476562" xlink:href="#DejaVuSans-114"/>
     <use x="104.558594" xlink:href="#DejaVuSans-111"/>
     <use x="165.740234" xlink:href="#DejaVuSans-103"/>
     <use x="229.216797" xlink:href="#DejaVuSans-110"/>
     <use x="292.595703" xlink:href="#DejaVuSans-111"/>
     <use x="353.777344" xlink:href="#DejaVuSans-115"/>
     <use x="405.876953" xlink:href="#DejaVuSans-105"/>
     <use x="433.660156" xlink:href="#DejaVuSans-115"/>
     <use x="485.759766" xlink:href="#DejaVuSans-32"/>
     <use x="517.546875" xlink:href="#DejaVuSans-116"/>
     <use x="556.755859" xlink:href="#DejaVuSans-97"/>
     <use x="618.035156" xlink:href="#DejaVuSans-115"/>
     <use x="670.134766" xlink:href="#DejaVuSans-107"/>
    </g>
   </g>
  </g>
 </g>
 <defs>
  <clipPath id="p080b36e863">
   <rect height="266.112" width="230.4" x="46.768125" y="35.7555"/>
  </clipPath>
 </defs>
</svg>
